<mxfile host="Electron" agent="Mozilla/5.0 (Windows NT 10.0; Win64; x64) AppleWebKit/537.36 (KHTML, like Gecko) draw.io/24.7.17 Chrome/128.0.6613.36 Electron/32.0.1 Safari/537.36" version="24.7.17" pages="2">
  <diagram name="Meta" id="ORFrB1i9ZS2MfI57llce">
    <mxGraphModel dx="1210" dy="814" grid="1" gridSize="10" guides="1" tooltips="1" connect="1" arrows="1" fold="1" page="0" pageScale="1" pageWidth="850" pageHeight="1100" math="0" shadow="0">
      <root>
        <mxCell id="zcp1QmxAoqO7T9O8vI6b-0" />
        <mxCell id="zcp1QmxAoqO7T9O8vI6b-1" parent="zcp1QmxAoqO7T9O8vI6b-0" />
        <mxCell id="tGocG6m9IAXdQLoZmJYw-2" value="" style="rounded=1;whiteSpace=wrap;html=1;fillColor=#f5f5f5;strokeColor=#666666;dashed=1;fontColor=#333333;" parent="zcp1QmxAoqO7T9O8vI6b-1" vertex="1">
          <mxGeometry x="1390" y="860" width="460" height="60" as="geometry" />
        </mxCell>
        <mxCell id="tGocG6m9IAXdQLoZmJYw-0" value="" style="rounded=1;whiteSpace=wrap;html=1;fillColor=#f5f5f5;strokeColor=#666666;dashed=1;fontColor=#333333;" parent="zcp1QmxAoqO7T9O8vI6b-1" vertex="1">
          <mxGeometry x="1390" y="700" width="780" height="60" as="geometry" />
        </mxCell>
        <mxCell id="zcp1QmxAoqO7T9O8vI6b-70" value="Repo Item (RI)" style="swimlane;childLayout=stackLayout;horizontal=1;startSize=30;horizontalStack=0;rounded=1;fontSize=14;fontStyle=0;strokeWidth=2;resizeParent=0;resizeLast=1;shadow=0;dashed=0;align=center;arcSize=8;" parent="zcp1QmxAoqO7T9O8vI6b-1" vertex="1" collapsed="1">
          <mxGeometry x="360" y="240" width="160" height="30" as="geometry">
            <mxRectangle x="360" y="240" width="160" height="120" as="alternateBounds" />
          </mxGeometry>
        </mxCell>
        <mxCell id="zcp1QmxAoqO7T9O8vI6b-71" value="+Attribute1&#xa;+Attribute2&#xa;+Attribute3" style="align=left;strokeColor=none;fillColor=none;spacingLeft=4;fontSize=12;verticalAlign=top;resizable=0;rotatable=0;part=1;" parent="zcp1QmxAoqO7T9O8vI6b-70" vertex="1">
          <mxGeometry y="30" width="160" height="90" as="geometry" />
        </mxCell>
        <mxCell id="zcp1QmxAoqO7T9O8vI6b-72" value="Meta Item (MI)" style="swimlane;childLayout=stackLayout;horizontal=1;startSize=30;horizontalStack=0;rounded=1;fontSize=14;fontStyle=0;strokeWidth=2;resizeParent=0;resizeLast=1;shadow=0;dashed=0;align=center;arcSize=8;fillColor=#fff2cc;strokeColor=#d6b656;" parent="zcp1QmxAoqO7T9O8vI6b-1" vertex="1" collapsed="1">
          <mxGeometry x="560" y="240" width="160" height="30" as="geometry">
            <mxRectangle x="360" y="240" width="160" height="120" as="alternateBounds" />
          </mxGeometry>
        </mxCell>
        <mxCell id="zcp1QmxAoqO7T9O8vI6b-73" value="+Attribute1&#xa;+Attribute2&#xa;+Attribute3" style="align=left;strokeColor=none;fillColor=none;spacingLeft=4;fontSize=12;verticalAlign=top;resizable=0;rotatable=0;part=1;" parent="zcp1QmxAoqO7T9O8vI6b-72" vertex="1">
          <mxGeometry y="30" width="160" height="90" as="geometry" />
        </mxCell>
        <mxCell id="zcp1QmxAoqO7T9O8vI6b-74" value="RI Link" style="swimlane;childLayout=stackLayout;horizontal=1;startSize=30;horizontalStack=0;rounded=1;fontSize=14;fontStyle=0;strokeWidth=2;resizeParent=0;resizeLast=1;shadow=0;dashed=0;align=center;arcSize=8;" parent="zcp1QmxAoqO7T9O8vI6b-1" vertex="1" collapsed="1">
          <mxGeometry x="360" y="320" width="160" height="30" as="geometry">
            <mxRectangle x="360" y="160" width="160" height="120" as="alternateBounds" />
          </mxGeometry>
        </mxCell>
        <mxCell id="zcp1QmxAoqO7T9O8vI6b-75" value="+Attribute1&#xa;+Attribute2&#xa;+Attribute3" style="align=left;strokeColor=none;fillColor=none;spacingLeft=4;fontSize=12;verticalAlign=top;resizable=0;rotatable=0;part=1;" parent="zcp1QmxAoqO7T9O8vI6b-74" vertex="1">
          <mxGeometry y="30" width="160" height="90" as="geometry" />
        </mxCell>
        <mxCell id="zcp1QmxAoqO7T9O8vI6b-76" value="RI Link Type" style="swimlane;childLayout=stackLayout;horizontal=1;startSize=30;horizontalStack=0;rounded=1;fontSize=14;fontStyle=0;strokeWidth=2;resizeParent=0;resizeLast=1;shadow=0;dashed=0;align=center;arcSize=8;" parent="zcp1QmxAoqO7T9O8vI6b-1" vertex="1" collapsed="1">
          <mxGeometry x="560" y="400" width="160" height="30" as="geometry">
            <mxRectangle x="360" y="160" width="160" height="120" as="alternateBounds" />
          </mxGeometry>
        </mxCell>
        <mxCell id="zcp1QmxAoqO7T9O8vI6b-77" value="+Attribute1&#xa;+Attribute2&#xa;+Attribute3" style="align=left;strokeColor=none;fillColor=none;spacingLeft=4;fontSize=12;verticalAlign=top;resizable=0;rotatable=0;part=1;" parent="zcp1QmxAoqO7T9O8vI6b-76" vertex="1">
          <mxGeometry y="30" width="160" height="90" as="geometry" />
        </mxCell>
        <mxCell id="zcp1QmxAoqO7T9O8vI6b-78" value="" style="edgeStyle=orthogonalEdgeStyle;fontSize=12;html=1;endArrow=ERmany;strokeWidth=1;" parent="zcp1QmxAoqO7T9O8vI6b-1" source="zcp1QmxAoqO7T9O8vI6b-82" target="zcp1QmxAoqO7T9O8vI6b-74" edge="1">
          <mxGeometry width="100" height="100" relative="1" as="geometry">
            <mxPoint x="560" y="460" as="sourcePoint" />
            <mxPoint x="520" y="460" as="targetPoint" />
            <Array as="points" />
          </mxGeometry>
        </mxCell>
        <mxCell id="zcp1QmxAoqO7T9O8vI6b-79" value="" style="edgeStyle=orthogonalEdgeStyle;fontSize=12;html=1;endArrow=ERmany;strokeWidth=1;" parent="zcp1QmxAoqO7T9O8vI6b-1" source="zcp1QmxAoqO7T9O8vI6b-70" target="zcp1QmxAoqO7T9O8vI6b-74" edge="1">
          <mxGeometry width="100" height="100" relative="1" as="geometry">
            <mxPoint x="339.9999999999999" y="270" as="sourcePoint" />
            <mxPoint x="339.9999999999999" y="320" as="targetPoint" />
            <Array as="points">
              <mxPoint x="400" y="300" />
              <mxPoint x="400" y="300" />
            </Array>
          </mxGeometry>
        </mxCell>
        <mxCell id="zcp1QmxAoqO7T9O8vI6b-80" value="" style="edgeStyle=orthogonalEdgeStyle;fontSize=12;html=1;endArrow=ERmany;strokeWidth=1;" parent="zcp1QmxAoqO7T9O8vI6b-1" source="zcp1QmxAoqO7T9O8vI6b-70" target="zcp1QmxAoqO7T9O8vI6b-74" edge="1">
          <mxGeometry width="100" height="100" relative="1" as="geometry">
            <mxPoint x="409.9999999999999" y="280" as="sourcePoint" />
            <mxPoint x="409.9999999999999" y="330" as="targetPoint" />
            <Array as="points">
              <mxPoint x="480" y="300" />
              <mxPoint x="480" y="300" />
            </Array>
          </mxGeometry>
        </mxCell>
        <mxCell id="zcp1QmxAoqO7T9O8vI6b-81" value="" style="edgeStyle=orthogonalEdgeStyle;fontSize=12;html=1;endArrow=ERmany;strokeWidth=1;" parent="zcp1QmxAoqO7T9O8vI6b-1" source="zcp1QmxAoqO7T9O8vI6b-72" target="zcp1QmxAoqO7T9O8vI6b-70" edge="1">
          <mxGeometry width="100" height="100" relative="1" as="geometry">
            <mxPoint x="490" y="280" as="sourcePoint" />
            <mxPoint x="490" y="330" as="targetPoint" />
            <Array as="points" />
          </mxGeometry>
        </mxCell>
        <mxCell id="zcp1QmxAoqO7T9O8vI6b-82" value="MI Link" style="swimlane;childLayout=stackLayout;horizontal=1;startSize=30;horizontalStack=0;rounded=1;fontSize=14;fontStyle=0;strokeWidth=2;resizeParent=0;resizeLast=1;shadow=0;dashed=0;align=center;arcSize=8;fillColor=#fff2cc;strokeColor=#d6b656;" parent="zcp1QmxAoqO7T9O8vI6b-1" vertex="1" collapsed="1">
          <mxGeometry x="560" y="320" width="160" height="30" as="geometry">
            <mxRectangle x="360" y="240" width="160" height="120" as="alternateBounds" />
          </mxGeometry>
        </mxCell>
        <mxCell id="zcp1QmxAoqO7T9O8vI6b-83" value="+Attribute1&#xa;+Attribute2&#xa;+Attribute3" style="align=left;strokeColor=none;fillColor=none;spacingLeft=4;fontSize=12;verticalAlign=top;resizable=0;rotatable=0;part=1;" parent="zcp1QmxAoqO7T9O8vI6b-82" vertex="1">
          <mxGeometry y="30" width="160" height="90" as="geometry" />
        </mxCell>
        <mxCell id="zcp1QmxAoqO7T9O8vI6b-84" value="" style="edgeStyle=orthogonalEdgeStyle;fontSize=12;html=1;endArrow=ERmany;strokeWidth=1;fillColor=#fff2cc;strokeColor=#d6b656;" parent="zcp1QmxAoqO7T9O8vI6b-1" source="zcp1QmxAoqO7T9O8vI6b-72" target="zcp1QmxAoqO7T9O8vI6b-82" edge="1">
          <mxGeometry width="100" height="100" relative="1" as="geometry">
            <mxPoint x="490" y="280" as="sourcePoint" />
            <mxPoint x="490" y="410" as="targetPoint" />
            <Array as="points">
              <mxPoint x="600" y="290" />
              <mxPoint x="600" y="290" />
            </Array>
          </mxGeometry>
        </mxCell>
        <mxCell id="zcp1QmxAoqO7T9O8vI6b-85" value="MI Link Type" style="swimlane;childLayout=stackLayout;horizontal=1;startSize=30;horizontalStack=0;rounded=1;fontSize=14;fontStyle=0;strokeWidth=2;resizeParent=0;resizeLast=1;shadow=0;dashed=0;align=center;arcSize=8;fillColor=#fff2cc;strokeColor=#d6b656;" parent="zcp1QmxAoqO7T9O8vI6b-1" vertex="1" collapsed="1">
          <mxGeometry x="760" y="320" width="160" height="30" as="geometry">
            <mxRectangle x="360" y="240" width="160" height="120" as="alternateBounds" />
          </mxGeometry>
        </mxCell>
        <mxCell id="zcp1QmxAoqO7T9O8vI6b-86" value="+Attribute1&#xa;+Attribute2&#xa;+Attribute3" style="align=left;strokeColor=none;fillColor=none;spacingLeft=4;fontSize=12;verticalAlign=top;resizable=0;rotatable=0;part=1;" parent="zcp1QmxAoqO7T9O8vI6b-85" vertex="1">
          <mxGeometry y="30" width="160" height="90" as="geometry" />
        </mxCell>
        <mxCell id="zcp1QmxAoqO7T9O8vI6b-87" value="" style="edgeStyle=orthogonalEdgeStyle;fontSize=12;html=1;endArrow=ERmany;strokeWidth=1;fillColor=#fff2cc;strokeColor=#d6b656;" parent="zcp1QmxAoqO7T9O8vI6b-1" source="zcp1QmxAoqO7T9O8vI6b-72" target="zcp1QmxAoqO7T9O8vI6b-82" edge="1">
          <mxGeometry width="100" height="100" relative="1" as="geometry">
            <mxPoint x="650" y="280" as="sourcePoint" />
            <mxPoint x="650" y="330" as="targetPoint" />
            <Array as="points">
              <mxPoint x="680" y="300" />
              <mxPoint x="680" y="300" />
            </Array>
          </mxGeometry>
        </mxCell>
        <mxCell id="zcp1QmxAoqO7T9O8vI6b-88" value="" style="edgeStyle=orthogonalEdgeStyle;fontSize=12;html=1;endArrow=ERmany;strokeWidth=1;fillColor=#fff2cc;strokeColor=#d6b656;" parent="zcp1QmxAoqO7T9O8vI6b-1" source="zcp1QmxAoqO7T9O8vI6b-85" target="zcp1QmxAoqO7T9O8vI6b-82" edge="1">
          <mxGeometry width="100" height="100" relative="1" as="geometry">
            <mxPoint x="690" y="280" as="sourcePoint" />
            <mxPoint x="690" y="330" as="targetPoint" />
            <Array as="points" />
          </mxGeometry>
        </mxCell>
        <mxCell id="zcp1QmxAoqO7T9O8vI6b-89" value="MI_01 Perspective" style="text;html=1;strokeColor=#000000;fillColor=#ffe6cc;align=center;verticalAlign=middle;whiteSpace=wrap;rounded=0;fontSize=10;" parent="zcp1QmxAoqO7T9O8vI6b-1" vertex="1">
          <mxGeometry x="1400" y="400" width="120" height="30" as="geometry" />
        </mxCell>
        <mxCell id="zcp1QmxAoqO7T9O8vI6b-90" value="MI_02.001-MI_01&lt;br style=&quot;font-size: 10px;&quot;&gt;MI_02.101-MI_01" style="text;html=1;strokeColor=#000000;fillColor=#ffe6cc;align=center;verticalAlign=middle;whiteSpace=wrap;rounded=0;fontSize=10;" parent="zcp1QmxAoqO7T9O8vI6b-1" vertex="1">
          <mxGeometry x="1400" y="480" width="120" height="30" as="geometry" />
        </mxCell>
        <mxCell id="zcp1QmxAoqO7T9O8vI6b-91" value="30 Reflects" style="text;html=1;strokeColor=#d6b656;fillColor=#fff2cc;align=center;verticalAlign=middle;whiteSpace=wrap;rounded=0;fontSize=8;" parent="zcp1QmxAoqO7T9O8vI6b-1" vertex="1">
          <mxGeometry x="1560" y="480" width="120" height="30" as="geometry" />
        </mxCell>
        <mxCell id="zcp1QmxAoqO7T9O8vI6b-92" value="" style="endArrow=none;html=1;strokeWidth=1;fillColor=#fff2cc;strokeColor=#d6b656;edgeStyle=orthogonalEdgeStyle;" parent="zcp1QmxAoqO7T9O8vI6b-1" source="zcp1QmxAoqO7T9O8vI6b-91" target="zcp1QmxAoqO7T9O8vI6b-90" edge="1">
          <mxGeometry width="50" height="50" relative="1" as="geometry">
            <mxPoint x="1360" y="710" as="sourcePoint" />
            <mxPoint x="1410" y="660" as="targetPoint" />
            <Array as="points">
              <mxPoint x="1590" y="495" />
              <mxPoint x="1590" y="495" />
            </Array>
          </mxGeometry>
        </mxCell>
        <mxCell id="zcp1QmxAoqO7T9O8vI6b-94" value="" style="edgeStyle=orthogonalEdgeStyle;fontSize=12;html=1;endArrow=ERmany;strokeWidth=1;" parent="zcp1QmxAoqO7T9O8vI6b-1" source="zcp1QmxAoqO7T9O8vI6b-82" target="zcp1QmxAoqO7T9O8vI6b-76" edge="1">
          <mxGeometry width="100" height="100" relative="1" as="geometry">
            <mxPoint x="749.9985714285715" y="420" as="sourcePoint" />
            <mxPoint x="749.9985714285715" y="470" as="targetPoint" />
            <Array as="points">
              <mxPoint x="640" y="370" />
              <mxPoint x="640" y="370" />
            </Array>
          </mxGeometry>
        </mxCell>
        <mxCell id="zcp1QmxAoqO7T9O8vI6b-98" value="03.01 Company" style="text;html=1;strokeColor=#d6b656;fillColor=#fff2cc;align=center;verticalAlign=middle;whiteSpace=wrap;rounded=0;fontSize=8;" parent="zcp1QmxAoqO7T9O8vI6b-1" vertex="1">
          <mxGeometry x="1400" y="720" width="120" height="30" as="geometry" />
        </mxCell>
        <mxCell id="zcp1QmxAoqO7T9O8vI6b-99" value="03.02 Business Unit" style="text;html=1;strokeColor=#d6b656;fillColor=#fff2cc;align=center;verticalAlign=middle;whiteSpace=wrap;rounded=0;fontSize=8;" parent="zcp1QmxAoqO7T9O8vI6b-1" vertex="1">
          <mxGeometry x="1560" y="720" width="120" height="30" as="geometry" />
        </mxCell>
        <mxCell id="zcp1QmxAoqO7T9O8vI6b-102" value="03.01-03.02-01" style="text;html=1;strokeColor=#d6b656;fillColor=#fff2cc;align=center;verticalAlign=middle;whiteSpace=wrap;rounded=0;fontSize=8;" parent="zcp1QmxAoqO7T9O8vI6b-1" vertex="1">
          <mxGeometry x="1400" y="880" width="120" height="30" as="geometry" />
        </mxCell>
        <mxCell id="zcp1QmxAoqO7T9O8vI6b-103" value="01 Is Parent" style="text;html=1;strokeColor=#d6b656;fillColor=#fff2cc;align=center;verticalAlign=middle;whiteSpace=wrap;rounded=0;fontSize=8;" parent="zcp1QmxAoqO7T9O8vI6b-1" vertex="1">
          <mxGeometry x="1200" y="880" width="120" height="30" as="geometry" />
        </mxCell>
        <mxCell id="zcp1QmxAoqO7T9O8vI6b-104" value="" style="endArrow=none;html=1;strokeWidth=1;fillColor=#fff2cc;strokeColor=#d6b656;edgeStyle=orthogonalEdgeStyle;" parent="zcp1QmxAoqO7T9O8vI6b-1" source="zcp1QmxAoqO7T9O8vI6b-103" target="tGocG6m9IAXdQLoZmJYw-2" edge="1">
          <mxGeometry width="50" height="50" relative="1" as="geometry">
            <mxPoint x="1360" y="1110" as="sourcePoint" />
            <mxPoint x="1360" y="900" as="targetPoint" />
            <Array as="points">
              <mxPoint x="1370" y="895" />
              <mxPoint x="1370" y="895" />
            </Array>
          </mxGeometry>
        </mxCell>
        <mxCell id="zcp1QmxAoqO7T9O8vI6b-107" value="" style="endArrow=oval;html=1;strokeWidth=1;fillColor=#fff2cc;strokeColor=#d6b656;edgeStyle=orthogonalEdgeStyle;endFill=1;jumpStyle=arc;" parent="zcp1QmxAoqO7T9O8vI6b-1" source="zcp1QmxAoqO7T9O8vI6b-98" target="zcp1QmxAoqO7T9O8vI6b-102" edge="1">
          <mxGeometry width="50" height="50" relative="1" as="geometry">
            <mxPoint x="1490" y="730" as="sourcePoint" />
            <mxPoint x="1490" y="680" as="targetPoint" />
            <Array as="points">
              <mxPoint x="1460" y="810" />
              <mxPoint x="1460" y="810" />
            </Array>
          </mxGeometry>
        </mxCell>
        <mxCell id="zcp1QmxAoqO7T9O8vI6b-108" value="" style="endArrow=none;html=1;strokeWidth=1;fillColor=#fff2cc;strokeColor=#d6b656;edgeStyle=orthogonalEdgeStyle;endFill=0;jumpStyle=arc;" parent="zcp1QmxAoqO7T9O8vI6b-1" source="zcp1QmxAoqO7T9O8vI6b-102" target="zcp1QmxAoqO7T9O8vI6b-99" edge="1">
          <mxGeometry width="50" height="50" relative="1" as="geometry">
            <mxPoint x="1690" y="730" as="sourcePoint" />
            <mxPoint x="1810" y="790" as="targetPoint" />
            <Array as="points">
              <mxPoint x="1500" y="770" />
              <mxPoint x="1620" y="770" />
            </Array>
          </mxGeometry>
        </mxCell>
        <mxCell id="zcp1QmxAoqO7T9O8vI6b-109" value="03.03 System" style="text;html=1;strokeColor=#d6b656;fillColor=#fff2cc;align=center;verticalAlign=middle;whiteSpace=wrap;rounded=0;fontSize=8;" parent="zcp1QmxAoqO7T9O8vI6b-1" vertex="1">
          <mxGeometry x="1720" y="720" width="120" height="30" as="geometry" />
        </mxCell>
        <mxCell id="zcp1QmxAoqO7T9O8vI6b-110" value="03.04 Subsystem" style="text;html=1;strokeColor=#d6b656;fillColor=#fff2cc;align=center;verticalAlign=middle;whiteSpace=wrap;rounded=0;fontSize=8;" parent="zcp1QmxAoqO7T9O8vI6b-1" vertex="1">
          <mxGeometry x="1880" y="720" width="120" height="30" as="geometry" />
        </mxCell>
        <mxCell id="zcp1QmxAoqO7T9O8vI6b-113" value="02.01 Organization&lt;br style=&quot;font-size: 8px;&quot;&gt;02.02 Application&lt;br style=&quot;font-size: 8px;&quot;&gt;02.03 Integration" style="text;html=1;strokeColor=#d6b656;fillColor=#fff2cc;align=center;verticalAlign=middle;whiteSpace=wrap;rounded=0;fontSize=8;" parent="zcp1QmxAoqO7T9O8vI6b-1" vertex="1">
          <mxGeometry x="1400" y="400" width="120" height="40" as="geometry" />
        </mxCell>
        <mxCell id="zcp1QmxAoqO7T9O8vI6b-114" value="02.01-03.01-30&lt;div&gt;02.01-03.02-30&lt;br style=&quot;font-size: 8px;&quot;&gt;&lt;br style=&quot;font-size: 8px;&quot;&gt;02.02-03.01-30&lt;/div&gt;&lt;div&gt;02.02-03.02-30&lt;/div&gt;&lt;div&gt;02.02-03.03-30&lt;/div&gt;&lt;div&gt;02.02-03.04-30&lt;/div&gt;&lt;div&gt;&lt;br style=&quot;font-size: 8px;&quot;&gt;02.03-03.03-30&lt;br&gt;&lt;/div&gt;&lt;div&gt;02.03-03.04-30&lt;br&gt;&lt;/div&gt;&lt;div&gt;02.03-03.05-30&lt;/div&gt;" style="text;html=1;strokeColor=#d6b656;fillColor=#fff2cc;align=center;verticalAlign=middle;whiteSpace=wrap;rounded=0;fontSize=8;" parent="zcp1QmxAoqO7T9O8vI6b-1" vertex="1">
          <mxGeometry x="1400" y="480" width="120" height="120" as="geometry" />
        </mxCell>
        <mxCell id="zcp1QmxAoqO7T9O8vI6b-115" value="MI Type" style="swimlane;childLayout=stackLayout;horizontal=1;startSize=30;horizontalStack=0;rounded=1;fontSize=14;fontStyle=0;strokeWidth=2;resizeParent=0;resizeLast=1;shadow=0;dashed=0;align=center;arcSize=8;fillColor=#fff2cc;strokeColor=#d6b656;" parent="zcp1QmxAoqO7T9O8vI6b-1" vertex="1" collapsed="1">
          <mxGeometry x="760" y="240" width="160" height="30" as="geometry">
            <mxRectangle x="360" y="240" width="160" height="120" as="alternateBounds" />
          </mxGeometry>
        </mxCell>
        <mxCell id="zcp1QmxAoqO7T9O8vI6b-116" value="+Attribute1&#xa;+Attribute2&#xa;+Attribute3" style="align=left;strokeColor=none;fillColor=none;spacingLeft=4;fontSize=12;verticalAlign=top;resizable=0;rotatable=0;part=1;" parent="zcp1QmxAoqO7T9O8vI6b-115" vertex="1">
          <mxGeometry y="30" width="160" height="90" as="geometry" />
        </mxCell>
        <mxCell id="zcp1QmxAoqO7T9O8vI6b-117" value="" style="edgeStyle=orthogonalEdgeStyle;fontSize=12;html=1;endArrow=ERmany;strokeWidth=1;fillColor=#fff2cc;strokeColor=#d6b656;" parent="zcp1QmxAoqO7T9O8vI6b-1" source="zcp1QmxAoqO7T9O8vI6b-115" target="zcp1QmxAoqO7T9O8vI6b-72" edge="1">
          <mxGeometry width="100" height="100" relative="1" as="geometry">
            <mxPoint x="760" y="300" as="sourcePoint" />
            <mxPoint x="720" y="300" as="targetPoint" />
            <Array as="points" />
          </mxGeometry>
        </mxCell>
        <mxCell id="zcp1QmxAoqO7T9O8vI6b-118" value="MI_01 Perspective" style="text;html=1;strokeColor=#000000;fillColor=#ffe6cc;align=center;verticalAlign=middle;whiteSpace=wrap;rounded=0;fontSize=10;" parent="zcp1QmxAoqO7T9O8vI6b-1" vertex="1">
          <mxGeometry x="1560" y="400" width="120" height="30" as="geometry" />
        </mxCell>
        <mxCell id="zcp1QmxAoqO7T9O8vI6b-120" value="02 Perspective" style="text;html=1;strokeColor=#d6b656;fillColor=#fff2cc;align=center;verticalAlign=middle;whiteSpace=wrap;rounded=0;fontSize=8;" parent="zcp1QmxAoqO7T9O8vI6b-1" vertex="1">
          <mxGeometry x="1560" y="400" width="120" height="30" as="geometry" />
        </mxCell>
        <mxCell id="zcp1QmxAoqO7T9O8vI6b-121" value="" style="endArrow=none;html=1;strokeWidth=1;fillColor=#fff2cc;strokeColor=#d6b656;edgeStyle=orthogonalEdgeStyle;" parent="zcp1QmxAoqO7T9O8vI6b-1" source="zcp1QmxAoqO7T9O8vI6b-120" target="zcp1QmxAoqO7T9O8vI6b-113" edge="1">
          <mxGeometry width="50" height="50" relative="1" as="geometry">
            <mxPoint x="1840" y="480" as="sourcePoint" />
            <mxPoint x="1800" y="480" as="targetPoint" />
            <Array as="points">
              <mxPoint x="1530" y="415" />
              <mxPoint x="1530" y="415" />
            </Array>
          </mxGeometry>
        </mxCell>
        <mxCell id="zcp1QmxAoqO7T9O8vI6b-122" value="" style="endArrow=none;html=1;strokeWidth=1;fillColor=#fff2cc;strokeColor=#d6b656;edgeStyle=orthogonalEdgeStyle;endFill=0;" parent="zcp1QmxAoqO7T9O8vI6b-1" source="zcp1QmxAoqO7T9O8vI6b-114" target="zcp1QmxAoqO7T9O8vI6b-98" edge="1">
          <mxGeometry width="50" height="50" relative="1" as="geometry">
            <mxPoint x="1310" y="520" as="sourcePoint" />
            <mxPoint x="1310" y="640" as="targetPoint" />
            <Array as="points">
              <mxPoint x="1460" y="640" />
              <mxPoint x="1460" y="640" />
            </Array>
          </mxGeometry>
        </mxCell>
        <mxCell id="zcp1QmxAoqO7T9O8vI6b-123" value="" style="endArrow=none;html=1;strokeWidth=1;fillColor=#fff2cc;strokeColor=#d6b656;edgeStyle=orthogonalEdgeStyle;endFill=0;" parent="zcp1QmxAoqO7T9O8vI6b-1" source="zcp1QmxAoqO7T9O8vI6b-114" target="zcp1QmxAoqO7T9O8vI6b-99" edge="1">
          <mxGeometry width="50" height="50" relative="1" as="geometry">
            <mxPoint x="1700" y="550" as="sourcePoint" />
            <mxPoint x="1480" y="510" as="targetPoint" />
            <Array as="points">
              <mxPoint x="1470" y="660" />
              <mxPoint x="1620" y="660" />
            </Array>
          </mxGeometry>
        </mxCell>
        <mxCell id="zcp1QmxAoqO7T9O8vI6b-124" value="" style="endArrow=none;html=1;strokeWidth=1;fillColor=#fff2cc;strokeColor=#d6b656;edgeStyle=orthogonalEdgeStyle;endFill=0;" parent="zcp1QmxAoqO7T9O8vI6b-1" source="zcp1QmxAoqO7T9O8vI6b-114" target="zcp1QmxAoqO7T9O8vI6b-109" edge="1">
          <mxGeometry width="50" height="50" relative="1" as="geometry">
            <mxPoint x="1680" y="600" as="sourcePoint" />
            <mxPoint x="1880" y="550" as="targetPoint" />
            <Array as="points">
              <mxPoint x="1480" y="650" />
              <mxPoint x="1780" y="650" />
            </Array>
          </mxGeometry>
        </mxCell>
        <mxCell id="zcp1QmxAoqO7T9O8vI6b-125" value="" style="endArrow=none;html=1;strokeWidth=1;fillColor=#fff2cc;strokeColor=#d6b656;edgeStyle=orthogonalEdgeStyle;endFill=0;" parent="zcp1QmxAoqO7T9O8vI6b-1" source="zcp1QmxAoqO7T9O8vI6b-114" target="zcp1QmxAoqO7T9O8vI6b-110" edge="1">
          <mxGeometry width="50" height="50" relative="1" as="geometry">
            <mxPoint x="1860" y="590" as="sourcePoint" />
            <mxPoint x="2000" y="530" as="targetPoint" />
            <Array as="points">
              <mxPoint x="1490" y="640" />
              <mxPoint x="1940" y="640" />
            </Array>
          </mxGeometry>
        </mxCell>
        <mxCell id="zcp1QmxAoqO7T9O8vI6b-126" value="03.05 Information Flow" style="text;html=1;strokeColor=#d6b656;fillColor=#fff2cc;align=center;verticalAlign=middle;whiteSpace=wrap;rounded=0;fontSize=8;" parent="zcp1QmxAoqO7T9O8vI6b-1" vertex="1">
          <mxGeometry x="2040" y="720" width="120" height="30" as="geometry" />
        </mxCell>
        <mxCell id="zcp1QmxAoqO7T9O8vI6b-130" value="" style="endArrow=none;html=1;strokeWidth=1;fillColor=#fff2cc;strokeColor=#d6b656;edgeStyle=orthogonalEdgeStyle;endFill=0;jumpStyle=arc;" parent="zcp1QmxAoqO7T9O8vI6b-1" source="yXH9QaufiffFzJZCqWvs-27" target="zcp1QmxAoqO7T9O8vI6b-110" edge="1">
          <mxGeometry width="50" height="50" relative="1" as="geometry">
            <mxPoint x="1470" y="840" as="sourcePoint" />
            <mxPoint x="1630" y="760" as="targetPoint" />
            <Array as="points">
              <mxPoint x="1830" y="770" />
              <mxPoint x="1940" y="770" />
            </Array>
          </mxGeometry>
        </mxCell>
        <mxCell id="zcp1QmxAoqO7T9O8vI6b-131" value="" style="endArrow=none;html=1;strokeWidth=1;fillColor=#fff2cc;strokeColor=#d6b656;edgeStyle=orthogonalEdgeStyle;endFill=0;" parent="zcp1QmxAoqO7T9O8vI6b-1" source="zcp1QmxAoqO7T9O8vI6b-114" target="zcp1QmxAoqO7T9O8vI6b-126" edge="1">
          <mxGeometry width="50" height="50" relative="1" as="geometry">
            <mxPoint x="1950" y="690" as="sourcePoint" />
            <mxPoint x="2200" y="560" as="targetPoint" />
            <Array as="points">
              <mxPoint x="1500" y="630" />
              <mxPoint x="2100" y="630" />
            </Array>
          </mxGeometry>
        </mxCell>
        <mxCell id="fwpXa0l8IbfqV6iC9_I8-0" value="MI_01 Perspective" style="text;html=1;strokeColor=#000000;fillColor=#ffe6cc;align=center;verticalAlign=middle;whiteSpace=wrap;rounded=0;fontSize=10;" parent="zcp1QmxAoqO7T9O8vI6b-1" vertex="1">
          <mxGeometry x="1400" y="240" width="120" height="30" as="geometry" />
        </mxCell>
        <mxCell id="fwpXa0l8IbfqV6iC9_I8-2" value="01.01 Business&lt;br style=&quot;font-size: 8px;&quot;&gt;01.02 Application&lt;br style=&quot;font-size: 8px;&quot;&gt;01.03 Data&lt;div&gt;01.04 Technology&lt;/div&gt;" style="text;html=1;strokeColor=#d6b656;fillColor=#fff2cc;align=center;verticalAlign=middle;whiteSpace=wrap;rounded=0;fontSize=8;" parent="zcp1QmxAoqO7T9O8vI6b-1" vertex="1">
          <mxGeometry x="1400" y="240" width="120" height="40" as="geometry" />
        </mxCell>
        <mxCell id="fwpXa0l8IbfqV6iC9_I8-3" value="MI_01 Perspective" style="text;html=1;strokeColor=#000000;fillColor=#ffe6cc;align=center;verticalAlign=middle;whiteSpace=wrap;rounded=0;fontSize=10;" parent="zcp1QmxAoqO7T9O8vI6b-1" vertex="1">
          <mxGeometry x="1560" y="240" width="120" height="30" as="geometry" />
        </mxCell>
        <mxCell id="fwpXa0l8IbfqV6iC9_I8-5" value="01 Architecture Domain" style="text;html=1;strokeColor=#d6b656;fillColor=#fff2cc;align=center;verticalAlign=middle;whiteSpace=wrap;rounded=0;fontSize=8;" parent="zcp1QmxAoqO7T9O8vI6b-1" vertex="1">
          <mxGeometry x="1560" y="240" width="120" height="30" as="geometry" />
        </mxCell>
        <mxCell id="fwpXa0l8IbfqV6iC9_I8-6" value="" style="endArrow=none;html=1;strokeWidth=1;fillColor=#fff2cc;strokeColor=#d6b656;edgeStyle=orthogonalEdgeStyle;" parent="zcp1QmxAoqO7T9O8vI6b-1" source="fwpXa0l8IbfqV6iC9_I8-5" target="fwpXa0l8IbfqV6iC9_I8-2" edge="1">
          <mxGeometry width="50" height="50" relative="1" as="geometry">
            <mxPoint x="1840" y="320" as="sourcePoint" />
            <mxPoint x="1800" y="320" as="targetPoint" />
            <Array as="points">
              <mxPoint x="1530" y="255" />
              <mxPoint x="1530" y="255" />
            </Array>
          </mxGeometry>
        </mxCell>
        <mxCell id="fwpXa0l8IbfqV6iC9_I8-9" value="01.01-02.01-30&lt;div&gt;&lt;div&gt;01.02-02.01-30&lt;br&gt;&lt;/div&gt;&lt;div&gt;01.02-02.02-30&lt;br&gt;&lt;/div&gt;&lt;div&gt;01.02-02.03-30&lt;/div&gt;&lt;/div&gt;" style="text;html=1;strokeColor=#d6b656;fillColor=#fff2cc;align=center;verticalAlign=middle;whiteSpace=wrap;rounded=0;fontSize=8;" parent="zcp1QmxAoqO7T9O8vI6b-1" vertex="1">
          <mxGeometry x="1400" y="310" width="120" height="60" as="geometry" />
        </mxCell>
        <mxCell id="fwpXa0l8IbfqV6iC9_I8-10" value="" style="endArrow=oval;html=1;strokeWidth=1;fillColor=#fff2cc;strokeColor=#d6b656;edgeStyle=orthogonalEdgeStyle;endFill=1;" parent="zcp1QmxAoqO7T9O8vI6b-1" source="fwpXa0l8IbfqV6iC9_I8-2" target="fwpXa0l8IbfqV6iC9_I8-9" edge="1">
          <mxGeometry width="50" height="50" relative="1" as="geometry">
            <mxPoint x="1360" y="360" as="sourcePoint" />
            <mxPoint x="1360" y="400" as="targetPoint" />
          </mxGeometry>
        </mxCell>
        <mxCell id="fwpXa0l8IbfqV6iC9_I8-11" value="" style="endArrow=none;html=1;strokeWidth=1;fillColor=#fff2cc;strokeColor=#d6b656;edgeStyle=orthogonalEdgeStyle;" parent="zcp1QmxAoqO7T9O8vI6b-1" source="fwpXa0l8IbfqV6iC9_I8-9" target="zcp1QmxAoqO7T9O8vI6b-113" edge="1">
          <mxGeometry width="50" height="50" relative="1" as="geometry">
            <mxPoint x="1470" y="290" as="sourcePoint" />
            <mxPoint x="1470" y="330" as="targetPoint" />
          </mxGeometry>
        </mxCell>
        <mxCell id="fwpXa0l8IbfqV6iC9_I8-12" value="30 Reflects" style="text;html=1;strokeColor=#d6b656;fillColor=#fff2cc;align=center;verticalAlign=middle;whiteSpace=wrap;rounded=0;fontSize=8;" parent="zcp1QmxAoqO7T9O8vI6b-1" vertex="1">
          <mxGeometry x="1560" y="320" width="120" height="30" as="geometry" />
        </mxCell>
        <mxCell id="fwpXa0l8IbfqV6iC9_I8-14" value="" style="endArrow=none;html=1;strokeWidth=1;fillColor=#fff2cc;strokeColor=#d6b656;edgeStyle=orthogonalEdgeStyle;" parent="zcp1QmxAoqO7T9O8vI6b-1" source="fwpXa0l8IbfqV6iC9_I8-12" target="fwpXa0l8IbfqV6iC9_I8-9" edge="1">
          <mxGeometry width="50" height="50" relative="1" as="geometry">
            <mxPoint x="1570" y="265" as="sourcePoint" />
            <mxPoint x="1530" y="265" as="targetPoint" />
            <Array as="points">
              <mxPoint x="1540" y="335" />
              <mxPoint x="1540" y="335" />
            </Array>
          </mxGeometry>
        </mxCell>
        <mxCell id="fwpXa0l8IbfqV6iC9_I8-4" value="MI Type" style="text;html=1;strokeColor=#001DBC;fillColor=#0050ef;align=center;verticalAlign=middle;whiteSpace=wrap;rounded=0;fontSize=6;fontColor=#ffffff;" parent="zcp1QmxAoqO7T9O8vI6b-1" vertex="1">
          <mxGeometry x="1560" y="230" width="46" height="10" as="geometry" />
        </mxCell>
        <mxCell id="fwpXa0l8IbfqV6iC9_I8-1" value="MI" style="text;html=1;strokeColor=#001DBC;fillColor=#0050ef;align=center;verticalAlign=middle;whiteSpace=wrap;rounded=0;fontSize=6;fontColor=#ffffff;" parent="zcp1QmxAoqO7T9O8vI6b-1" vertex="1">
          <mxGeometry x="1400" y="230" width="46" height="10" as="geometry" />
        </mxCell>
        <mxCell id="zcp1QmxAoqO7T9O8vI6b-95" value="MI" style="text;html=1;strokeColor=#001DBC;fillColor=#0050ef;align=center;verticalAlign=middle;whiteSpace=wrap;rounded=0;fontSize=6;fontColor=#ffffff;" parent="zcp1QmxAoqO7T9O8vI6b-1" vertex="1">
          <mxGeometry x="1400" y="390" width="46" height="10" as="geometry" />
        </mxCell>
        <mxCell id="zcp1QmxAoqO7T9O8vI6b-119" value="MI Type" style="text;html=1;strokeColor=#001DBC;fillColor=#0050ef;align=center;verticalAlign=middle;whiteSpace=wrap;rounded=0;fontSize=6;fontColor=#ffffff;" parent="zcp1QmxAoqO7T9O8vI6b-1" vertex="1">
          <mxGeometry x="1560" y="390" width="46" height="10" as="geometry" />
        </mxCell>
        <mxCell id="fwpXa0l8IbfqV6iC9_I8-8" value="MI Link" style="text;html=1;strokeColor=#001DBC;fillColor=#0050ef;align=center;verticalAlign=middle;whiteSpace=wrap;rounded=0;fontSize=6;fontColor=#ffffff;" parent="zcp1QmxAoqO7T9O8vI6b-1" vertex="1">
          <mxGeometry x="1400" y="300" width="46" height="10" as="geometry" />
        </mxCell>
        <mxCell id="fwpXa0l8IbfqV6iC9_I8-13" value="MI Link Type" style="text;html=1;strokeColor=#001DBC;fillColor=#0050ef;align=center;verticalAlign=middle;whiteSpace=wrap;rounded=0;fontSize=6;fontColor=#ffffff;" parent="zcp1QmxAoqO7T9O8vI6b-1" vertex="1">
          <mxGeometry x="1560" y="310" width="60" height="10" as="geometry" />
        </mxCell>
        <mxCell id="zcp1QmxAoqO7T9O8vI6b-96" value="MI Link" style="text;html=1;strokeColor=#001DBC;fillColor=#0050ef;align=center;verticalAlign=middle;whiteSpace=wrap;rounded=0;fontSize=6;fontColor=#ffffff;" parent="zcp1QmxAoqO7T9O8vI6b-1" vertex="1">
          <mxGeometry x="1400" y="470" width="46" height="10" as="geometry" />
        </mxCell>
        <mxCell id="zcp1QmxAoqO7T9O8vI6b-97" value="MI Link Type" style="text;html=1;strokeColor=#001DBC;fillColor=#0050ef;align=center;verticalAlign=middle;whiteSpace=wrap;rounded=0;fontSize=6;fontColor=#ffffff;" parent="zcp1QmxAoqO7T9O8vI6b-1" vertex="1">
          <mxGeometry x="1560" y="470" width="60" height="10" as="geometry" />
        </mxCell>
        <mxCell id="zcp1QmxAoqO7T9O8vI6b-93" value="" style="endArrow=oval;html=1;strokeWidth=1;fillColor=#fff2cc;strokeColor=#d6b656;edgeStyle=orthogonalEdgeStyle;rounded=1;align=center;verticalAlign=middle;fontFamily=Helvetica;fontSize=11;fontColor=default;labelBackgroundColor=default;endFill=1;" parent="zcp1QmxAoqO7T9O8vI6b-1" source="zcp1QmxAoqO7T9O8vI6b-113" target="zcp1QmxAoqO7T9O8vI6b-90" edge="1">
          <mxGeometry width="50" height="50" relative="1" as="geometry">
            <mxPoint x="1470" y="460" as="sourcePoint" />
            <mxPoint x="1430" y="460" as="targetPoint" />
          </mxGeometry>
        </mxCell>
        <mxCell id="zcp1QmxAoqO7T9O8vI6b-100" value="MI" style="text;html=1;strokeColor=#001DBC;fillColor=#0050ef;align=center;verticalAlign=middle;whiteSpace=wrap;rounded=0;fontSize=6;fontColor=#ffffff;" parent="zcp1QmxAoqO7T9O8vI6b-1" vertex="1">
          <mxGeometry x="1400" y="710" width="46" height="10" as="geometry" />
        </mxCell>
        <mxCell id="zcp1QmxAoqO7T9O8vI6b-101" value="MI" style="text;html=1;strokeColor=#001DBC;fillColor=#0050ef;align=center;verticalAlign=middle;whiteSpace=wrap;rounded=0;fontSize=6;fontColor=#ffffff;" parent="zcp1QmxAoqO7T9O8vI6b-1" vertex="1">
          <mxGeometry x="1560" y="710" width="46" height="10" as="geometry" />
        </mxCell>
        <mxCell id="zcp1QmxAoqO7T9O8vI6b-105" value="MI Link" style="text;html=1;strokeColor=#001DBC;fillColor=#0050ef;align=center;verticalAlign=middle;whiteSpace=wrap;rounded=0;fontSize=6;fontColor=#ffffff;" parent="zcp1QmxAoqO7T9O8vI6b-1" vertex="1">
          <mxGeometry x="1400" y="870" width="46" height="10" as="geometry" />
        </mxCell>
        <mxCell id="zcp1QmxAoqO7T9O8vI6b-106" value="MI Link Type" style="text;html=1;strokeColor=#001DBC;fillColor=#0050ef;align=center;verticalAlign=middle;whiteSpace=wrap;rounded=0;fontSize=6;fontColor=#ffffff;" parent="zcp1QmxAoqO7T9O8vI6b-1" vertex="1">
          <mxGeometry x="1200" y="870" width="60" height="10" as="geometry" />
        </mxCell>
        <mxCell id="zcp1QmxAoqO7T9O8vI6b-111" value="MI" style="text;html=1;strokeColor=#001DBC;fillColor=#0050ef;align=center;verticalAlign=middle;whiteSpace=wrap;rounded=0;fontSize=6;fontColor=#ffffff;" parent="zcp1QmxAoqO7T9O8vI6b-1" vertex="1">
          <mxGeometry x="1720" y="710" width="46" height="10" as="geometry" />
        </mxCell>
        <mxCell id="zcp1QmxAoqO7T9O8vI6b-112" value="MI" style="text;html=1;strokeColor=#001DBC;fillColor=#0050ef;align=center;verticalAlign=middle;whiteSpace=wrap;rounded=0;fontSize=6;fontColor=#ffffff;" parent="zcp1QmxAoqO7T9O8vI6b-1" vertex="1">
          <mxGeometry x="1880" y="710" width="46" height="10" as="geometry" />
        </mxCell>
        <mxCell id="2NRI8NQ-9lPT6OoSeVtr-14" value="MI_01 Perspective" style="text;html=1;strokeColor=#000000;fillColor=#ffe6cc;align=center;verticalAlign=middle;whiteSpace=wrap;rounded=0;fontSize=10;" parent="zcp1QmxAoqO7T9O8vI6b-1" vertex="1">
          <mxGeometry x="1200" y="720" width="120" height="30" as="geometry" />
        </mxCell>
        <mxCell id="2NRI8NQ-9lPT6OoSeVtr-15" value="03 Repo Item Type" style="text;html=1;strokeColor=#d6b656;fillColor=#fff2cc;align=center;verticalAlign=middle;whiteSpace=wrap;rounded=0;fontSize=8;" parent="zcp1QmxAoqO7T9O8vI6b-1" vertex="1">
          <mxGeometry x="1200" y="720" width="120" height="30" as="geometry" />
        </mxCell>
        <mxCell id="2NRI8NQ-9lPT6OoSeVtr-16" value="MI Type" style="text;html=1;strokeColor=#001DBC;fillColor=#0050ef;align=center;verticalAlign=middle;whiteSpace=wrap;rounded=0;fontSize=6;fontColor=#ffffff;" parent="zcp1QmxAoqO7T9O8vI6b-1" vertex="1">
          <mxGeometry x="1200" y="710" width="46" height="10" as="geometry" />
        </mxCell>
        <mxCell id="tGocG6m9IAXdQLoZmJYw-1" value="" style="endArrow=none;html=1;strokeWidth=1;fillColor=#fff2cc;strokeColor=#d6b656;edgeStyle=orthogonalEdgeStyle;endFill=0;" parent="zcp1QmxAoqO7T9O8vI6b-1" source="2NRI8NQ-9lPT6OoSeVtr-15" target="tGocG6m9IAXdQLoZmJYw-0" edge="1">
          <mxGeometry width="50" height="50" relative="1" as="geometry">
            <mxPoint x="1330" y="660" as="sourcePoint" />
            <mxPoint x="1290" y="660" as="targetPoint" />
            <Array as="points">
              <mxPoint x="1500" y="730" />
              <mxPoint x="1500" y="730" />
            </Array>
          </mxGeometry>
        </mxCell>
        <mxCell id="zcp1QmxAoqO7T9O8vI6b-127" value="MI" style="text;html=1;strokeColor=#001DBC;fillColor=#0050ef;align=center;verticalAlign=middle;whiteSpace=wrap;rounded=0;fontSize=6;fontColor=#ffffff;" parent="zcp1QmxAoqO7T9O8vI6b-1" vertex="1">
          <mxGeometry x="2040" y="710" width="46" height="10" as="geometry" />
        </mxCell>
        <mxCell id="yXH9QaufiffFzJZCqWvs-20" value="&lt;div&gt;01.02-03.01-10&lt;/div&gt;" style="text;html=1;strokeColor=#d6b656;fillColor=#fff2cc;align=center;verticalAlign=middle;whiteSpace=wrap;rounded=0;fontSize=8;" parent="zcp1QmxAoqO7T9O8vI6b-1" vertex="1">
          <mxGeometry x="1080" y="320" width="120" height="40" as="geometry" />
        </mxCell>
        <mxCell id="yXH9QaufiffFzJZCqWvs-21" value="10 Is Root" style="text;html=1;strokeColor=#d6b656;fillColor=#fff2cc;align=center;verticalAlign=middle;whiteSpace=wrap;rounded=0;fontSize=8;" parent="zcp1QmxAoqO7T9O8vI6b-1" vertex="1">
          <mxGeometry x="1240" y="320" width="120" height="30" as="geometry" />
        </mxCell>
        <mxCell id="yXH9QaufiffFzJZCqWvs-22" value="" style="endArrow=none;html=1;strokeWidth=1;fillColor=#fff2cc;strokeColor=#d6b656;edgeStyle=orthogonalEdgeStyle;" parent="zcp1QmxAoqO7T9O8vI6b-1" source="yXH9QaufiffFzJZCqWvs-21" target="yXH9QaufiffFzJZCqWvs-20" edge="1">
          <mxGeometry width="50" height="50" relative="1" as="geometry">
            <mxPoint x="1250" y="265" as="sourcePoint" />
            <mxPoint x="1210" y="265" as="targetPoint" />
            <Array as="points">
              <mxPoint x="1220" y="335" />
              <mxPoint x="1220" y="335" />
            </Array>
          </mxGeometry>
        </mxCell>
        <mxCell id="yXH9QaufiffFzJZCqWvs-23" value="MI Link" style="text;html=1;strokeColor=#001DBC;fillColor=#0050ef;align=center;verticalAlign=middle;whiteSpace=wrap;rounded=0;fontSize=6;fontColor=#ffffff;" parent="zcp1QmxAoqO7T9O8vI6b-1" vertex="1">
          <mxGeometry x="1080" y="310" width="46" height="10" as="geometry" />
        </mxCell>
        <mxCell id="yXH9QaufiffFzJZCqWvs-24" value="MI Link Type" style="text;html=1;strokeColor=#001DBC;fillColor=#0050ef;align=center;verticalAlign=middle;whiteSpace=wrap;rounded=0;fontSize=6;fontColor=#ffffff;" parent="zcp1QmxAoqO7T9O8vI6b-1" vertex="1">
          <mxGeometry x="1240" y="310" width="60" height="10" as="geometry" />
        </mxCell>
        <mxCell id="yXH9QaufiffFzJZCqWvs-25" value="" style="endArrow=oval;html=1;strokeWidth=1;fillColor=#fff2cc;strokeColor=#d6b656;edgeStyle=orthogonalEdgeStyle;endFill=1;" parent="zcp1QmxAoqO7T9O8vI6b-1" source="fwpXa0l8IbfqV6iC9_I8-2" target="yXH9QaufiffFzJZCqWvs-20" edge="1">
          <mxGeometry width="50" height="50" relative="1" as="geometry">
            <mxPoint x="1470" y="290" as="sourcePoint" />
            <mxPoint x="1470" y="320" as="targetPoint" />
          </mxGeometry>
        </mxCell>
        <mxCell id="yXH9QaufiffFzJZCqWvs-26" value="" style="endArrow=none;html=1;strokeWidth=1;fillColor=#fff2cc;strokeColor=#d6b656;edgeStyle=orthogonalEdgeStyle;endFill=0;" parent="zcp1QmxAoqO7T9O8vI6b-1" source="yXH9QaufiffFzJZCqWvs-20" target="zcp1QmxAoqO7T9O8vI6b-98" edge="1">
          <mxGeometry width="50" height="50" relative="1" as="geometry">
            <mxPoint x="1229.8" y="520" as="sourcePoint" />
            <mxPoint x="1229.8" y="640" as="targetPoint" />
            <Array as="points">
              <mxPoint x="1140" y="680" />
              <mxPoint x="1450" y="680" />
            </Array>
          </mxGeometry>
        </mxCell>
        <mxCell id="yXH9QaufiffFzJZCqWvs-27" value="03.03-03.04-01" style="text;html=1;strokeColor=#d6b656;fillColor=#fff2cc;align=center;verticalAlign=middle;whiteSpace=wrap;rounded=0;fontSize=8;" parent="zcp1QmxAoqO7T9O8vI6b-1" vertex="1">
          <mxGeometry x="1720" y="880" width="120" height="30" as="geometry" />
        </mxCell>
        <mxCell id="yXH9QaufiffFzJZCqWvs-28" value="MI Link" style="text;html=1;strokeColor=#001DBC;fillColor=#0050ef;align=center;verticalAlign=middle;whiteSpace=wrap;rounded=0;fontSize=6;fontColor=#ffffff;" parent="zcp1QmxAoqO7T9O8vI6b-1" vertex="1">
          <mxGeometry x="1720" y="870" width="46" height="10" as="geometry" />
        </mxCell>
        <mxCell id="zcp1QmxAoqO7T9O8vI6b-129" value="" style="endArrow=oval;html=1;strokeWidth=1;fillColor=#fff2cc;strokeColor=#d6b656;edgeStyle=orthogonalEdgeStyle;endFill=1;jumpStyle=arc;" parent="zcp1QmxAoqO7T9O8vI6b-1" source="zcp1QmxAoqO7T9O8vI6b-109" target="yXH9QaufiffFzJZCqWvs-27" edge="1">
          <mxGeometry width="50" height="50" relative="1" as="geometry">
            <mxPoint x="1460" y="760" as="sourcePoint" />
            <mxPoint x="1460" y="840" as="targetPoint" />
            <Array as="points">
              <mxPoint x="1780" y="850" />
              <mxPoint x="1780" y="850" />
            </Array>
          </mxGeometry>
        </mxCell>
        <mxCell id="yXH9QaufiffFzJZCqWvs-29" value="03.01-03.03-01&lt;div&gt;03.02-03.03-01&lt;br&gt;&lt;/div&gt;" style="text;html=1;strokeColor=#d6b656;fillColor=#fff2cc;align=center;verticalAlign=middle;whiteSpace=wrap;rounded=0;fontSize=8;" parent="zcp1QmxAoqO7T9O8vI6b-1" vertex="1">
          <mxGeometry x="1560" y="880" width="120" height="30" as="geometry" />
        </mxCell>
        <mxCell id="yXH9QaufiffFzJZCqWvs-30" value="MI Link" style="text;html=1;strokeColor=#001DBC;fillColor=#0050ef;align=center;verticalAlign=middle;whiteSpace=wrap;rounded=0;fontSize=6;fontColor=#ffffff;" parent="zcp1QmxAoqO7T9O8vI6b-1" vertex="1">
          <mxGeometry x="1560" y="870" width="46" height="10" as="geometry" />
        </mxCell>
        <mxCell id="yXH9QaufiffFzJZCqWvs-31" value="" style="endArrow=oval;html=1;strokeWidth=1;fillColor=#fff2cc;strokeColor=#d6b656;edgeStyle=orthogonalEdgeStyle;endFill=1;jumpStyle=arc;" parent="zcp1QmxAoqO7T9O8vI6b-1" source="zcp1QmxAoqO7T9O8vI6b-98" target="yXH9QaufiffFzJZCqWvs-29" edge="1">
          <mxGeometry width="50" height="50" relative="1" as="geometry">
            <mxPoint x="1460" y="760" as="sourcePoint" />
            <mxPoint x="1460" y="890" as="targetPoint" />
            <Array as="points">
              <mxPoint x="1470" y="840" />
              <mxPoint x="1620" y="840" />
            </Array>
          </mxGeometry>
        </mxCell>
        <mxCell id="yXH9QaufiffFzJZCqWvs-32" value="" style="endArrow=none;html=1;strokeWidth=1;fillColor=#fff2cc;strokeColor=#d6b656;edgeStyle=orthogonalEdgeStyle;endFill=0;jumpStyle=arc;" parent="zcp1QmxAoqO7T9O8vI6b-1" source="yXH9QaufiffFzJZCqWvs-29" target="zcp1QmxAoqO7T9O8vI6b-109" edge="1">
          <mxGeometry width="50" height="50" relative="1" as="geometry">
            <mxPoint x="1510" y="890" as="sourcePoint" />
            <mxPoint x="1630" y="760" as="targetPoint" />
            <Array as="points">
              <mxPoint x="1640" y="840" />
              <mxPoint x="1730" y="840" />
            </Array>
          </mxGeometry>
        </mxCell>
        <mxCell id="yXH9QaufiffFzJZCqWvs-33" value="" style="endArrow=oval;html=1;strokeWidth=1;fillColor=#fff2cc;strokeColor=#d6b656;edgeStyle=orthogonalEdgeStyle;endFill=1;jumpStyle=arc;" parent="zcp1QmxAoqO7T9O8vI6b-1" source="zcp1QmxAoqO7T9O8vI6b-99" target="yXH9QaufiffFzJZCqWvs-29" edge="1">
          <mxGeometry width="50" height="50" relative="1" as="geometry">
            <mxPoint x="1480" y="760" as="sourcePoint" />
            <mxPoint x="1630" y="890" as="targetPoint" />
            <Array as="points">
              <mxPoint x="1630" y="810" />
              <mxPoint x="1630" y="810" />
            </Array>
          </mxGeometry>
        </mxCell>
        <mxCell id="yXH9QaufiffFzJZCqWvs-34" value="03.03-03.05-05&lt;div&gt;03.04-03.05-05&lt;br&gt;&lt;div&gt;03.03-03.05-06&lt;div&gt;03.04-03.05-06&lt;/div&gt;&lt;/div&gt;&lt;/div&gt;" style="text;html=1;strokeColor=#d6b656;fillColor=#fff2cc;align=center;verticalAlign=middle;whiteSpace=wrap;rounded=0;fontSize=8;" parent="zcp1QmxAoqO7T9O8vI6b-1" vertex="1">
          <mxGeometry x="2040" y="870" width="120" height="50" as="geometry" />
        </mxCell>
        <mxCell id="yXH9QaufiffFzJZCqWvs-35" value="MI Link" style="text;html=1;strokeColor=#001DBC;fillColor=#0050ef;align=center;verticalAlign=middle;whiteSpace=wrap;rounded=0;fontSize=6;fontColor=#ffffff;" parent="zcp1QmxAoqO7T9O8vI6b-1" vertex="1">
          <mxGeometry x="2040" y="860" width="46" height="10" as="geometry" />
        </mxCell>
        <mxCell id="yXH9QaufiffFzJZCqWvs-36" value="" style="endArrow=oval;html=1;strokeWidth=1;fillColor=#fff2cc;strokeColor=#d6b656;edgeStyle=orthogonalEdgeStyle;endFill=1;jumpStyle=arc;" parent="zcp1QmxAoqO7T9O8vI6b-1" source="zcp1QmxAoqO7T9O8vI6b-109" target="yXH9QaufiffFzJZCqWvs-34" edge="1">
          <mxGeometry width="50" height="50" relative="1" as="geometry">
            <mxPoint x="1790" y="760" as="sourcePoint" />
            <mxPoint x="1790" y="890" as="targetPoint" />
            <Array as="points">
              <mxPoint x="1790" y="840" />
              <mxPoint x="2100" y="840" />
            </Array>
          </mxGeometry>
        </mxCell>
        <mxCell id="yXH9QaufiffFzJZCqWvs-37" value="" style="endArrow=oval;html=1;strokeWidth=1;fillColor=#fff2cc;strokeColor=#d6b656;edgeStyle=orthogonalEdgeStyle;endFill=1;jumpStyle=arc;" parent="zcp1QmxAoqO7T9O8vI6b-1" source="zcp1QmxAoqO7T9O8vI6b-110" target="yXH9QaufiffFzJZCqWvs-34" edge="1">
          <mxGeometry width="50" height="50" relative="1" as="geometry">
            <mxPoint x="1800" y="760" as="sourcePoint" />
            <mxPoint x="2110" y="890" as="targetPoint" />
            <Array as="points">
              <mxPoint x="1950" y="830" />
              <mxPoint x="2110" y="830" />
            </Array>
          </mxGeometry>
        </mxCell>
        <mxCell id="yXH9QaufiffFzJZCqWvs-38" value="" style="endArrow=none;html=1;strokeWidth=1;fillColor=#fff2cc;strokeColor=#d6b656;edgeStyle=orthogonalEdgeStyle;endFill=0;jumpStyle=arc;" parent="zcp1QmxAoqO7T9O8vI6b-1" source="yXH9QaufiffFzJZCqWvs-34" target="zcp1QmxAoqO7T9O8vI6b-126" edge="1">
          <mxGeometry width="50" height="50" relative="1" as="geometry">
            <mxPoint x="1840" y="890" as="sourcePoint" />
            <mxPoint x="1950" y="760" as="targetPoint" />
            <Array as="points">
              <mxPoint x="2120" y="770" />
              <mxPoint x="2120" y="770" />
            </Array>
          </mxGeometry>
        </mxCell>
        <mxCell id="x2hqNx-ZSbtzB6atCz50-18" value="05 Side A&lt;div&gt;06 Side B&lt;/div&gt;" style="text;html=1;strokeColor=#d6b656;fillColor=#fff2cc;align=center;verticalAlign=middle;whiteSpace=wrap;rounded=0;fontSize=8;" parent="zcp1QmxAoqO7T9O8vI6b-1" vertex="1">
          <mxGeometry x="2200" y="880" width="120" height="30" as="geometry" />
        </mxCell>
        <mxCell id="x2hqNx-ZSbtzB6atCz50-19" value="" style="endArrow=none;html=1;strokeWidth=1;fillColor=#fff2cc;strokeColor=#d6b656;edgeStyle=orthogonalEdgeStyle;" parent="zcp1QmxAoqO7T9O8vI6b-1" source="x2hqNx-ZSbtzB6atCz50-18" target="yXH9QaufiffFzJZCqWvs-34" edge="1">
          <mxGeometry width="50" height="50" relative="1" as="geometry">
            <mxPoint x="2360" y="1110" as="sourcePoint" />
            <mxPoint x="2390" y="895" as="targetPoint" />
            <Array as="points" />
          </mxGeometry>
        </mxCell>
        <mxCell id="x2hqNx-ZSbtzB6atCz50-20" value="MI Link Type" style="text;html=1;strokeColor=#001DBC;fillColor=#0050ef;align=center;verticalAlign=middle;whiteSpace=wrap;rounded=0;fontSize=6;fontColor=#ffffff;" parent="zcp1QmxAoqO7T9O8vI6b-1" vertex="1">
          <mxGeometry x="2200" y="870" width="60" height="10" as="geometry" />
        </mxCell>
      </root>
    </mxGraphModel>
  </diagram>
  <diagram id="JvMTPCjI9tbm8H4MGw7S" name="saved_241017">
    <mxGraphModel dx="3195" dy="1997" grid="1" gridSize="10" guides="1" tooltips="1" connect="1" arrows="1" fold="1" page="0" pageScale="1" pageWidth="850" pageHeight="1100" math="0" shadow="0">
      <root>
        <mxCell id="0" />
        <mxCell id="1" parent="0" />
        <mxCell id="15" value="RiPerspective" style="swimlane;childLayout=stackLayout;horizontal=1;startSize=30;horizontalStack=0;rounded=1;fontSize=14;fontStyle=0;strokeWidth=2;resizeParent=0;resizeLast=1;shadow=0;dashed=0;align=center;arcSize=8;" parent="1" vertex="1" collapsed="1">
          <mxGeometry x="360" y="-80" width="160" height="30" as="geometry">
            <mxRectangle x="360" width="160" height="120" as="alternateBounds" />
          </mxGeometry>
        </mxCell>
        <mxCell id="16" value="+Attribute1&#xa;+Attribute2&#xa;+Attribute3" style="align=left;strokeColor=none;fillColor=none;spacingLeft=4;fontSize=12;verticalAlign=top;resizable=0;rotatable=0;part=1;" parent="15" vertex="1">
          <mxGeometry y="30" width="160" height="90" as="geometry" />
        </mxCell>
        <mxCell id="17" value="RiType" style="swimlane;childLayout=stackLayout;horizontal=1;startSize=30;horizontalStack=0;rounded=1;fontSize=14;fontStyle=0;strokeWidth=2;resizeParent=0;resizeLast=1;shadow=0;dashed=0;align=center;arcSize=8;" parent="1" vertex="1" collapsed="1">
          <mxGeometry x="360" y="80" width="160" height="30" as="geometry">
            <mxRectangle x="360" y="240" width="160" height="120" as="alternateBounds" />
          </mxGeometry>
        </mxCell>
        <mxCell id="18" value="+Attribute1&#xa;+Attribute2&#xa;+Attribute3" style="align=left;strokeColor=none;fillColor=none;spacingLeft=4;fontSize=12;verticalAlign=top;resizable=0;rotatable=0;part=1;" parent="17" vertex="1">
          <mxGeometry y="30" width="160" height="90" as="geometry" />
        </mxCell>
        <mxCell id="19" value="" style="edgeStyle=orthogonalEdgeStyle;fontSize=12;html=1;endArrow=ERmany;strokeWidth=1;" parent="1" source="15" target="27" edge="1">
          <mxGeometry width="100" height="100" relative="1" as="geometry">
            <mxPoint x="745" y="-140" as="sourcePoint" />
            <mxPoint x="805" y="-100" as="targetPoint" />
            <Array as="points">
              <mxPoint x="405" y="-50" />
            </Array>
          </mxGeometry>
        </mxCell>
        <mxCell id="20" value="RiTypeLink" style="swimlane;childLayout=stackLayout;horizontal=1;startSize=30;horizontalStack=0;rounded=1;fontSize=14;fontStyle=0;strokeWidth=2;resizeParent=0;resizeLast=1;shadow=0;dashed=0;align=center;arcSize=8;" parent="1" vertex="1" collapsed="1">
          <mxGeometry x="360" y="160" width="160" height="30" as="geometry">
            <mxRectangle x="360" y="160" width="160" height="120" as="alternateBounds" />
          </mxGeometry>
        </mxCell>
        <mxCell id="21" value="+Attribute1&#xa;+Attribute2&#xa;+Attribute3" style="align=left;strokeColor=none;fillColor=none;spacingLeft=4;fontSize=12;verticalAlign=top;resizable=0;rotatable=0;part=1;" parent="20" vertex="1">
          <mxGeometry y="30" width="160" height="90" as="geometry" />
        </mxCell>
        <mxCell id="22" value="" style="edgeStyle=orthogonalEdgeStyle;fontSize=12;html=1;endArrow=ERmany;strokeWidth=1;" parent="1" source="17" target="20" edge="1">
          <mxGeometry width="100" height="100" relative="1" as="geometry">
            <mxPoint x="550" y="200" as="sourcePoint" />
            <mxPoint x="520" y="280" as="targetPoint" />
            <Array as="points">
              <mxPoint x="400" y="140" />
              <mxPoint x="400" y="140" />
            </Array>
          </mxGeometry>
        </mxCell>
        <mxCell id="23" value="" style="edgeStyle=orthogonalEdgeStyle;fontSize=12;html=1;endArrow=ERmany;strokeWidth=1;" parent="1" source="17" target="20" edge="1">
          <mxGeometry width="100" height="100" relative="1" as="geometry">
            <mxPoint x="390" y="120" as="sourcePoint" />
            <mxPoint x="390" y="170" as="targetPoint" />
            <Array as="points">
              <mxPoint x="480" y="130" />
              <mxPoint x="480" y="130" />
            </Array>
          </mxGeometry>
        </mxCell>
        <mxCell id="24" value="RiTypeLinkType" style="swimlane;childLayout=stackLayout;horizontal=1;startSize=30;horizontalStack=0;rounded=1;fontSize=14;fontStyle=0;strokeWidth=2;resizeParent=0;resizeLast=1;shadow=0;dashed=0;align=center;arcSize=8;" parent="1" vertex="1" collapsed="1">
          <mxGeometry x="560" y="160" width="160" height="30" as="geometry">
            <mxRectangle x="520" y="160" width="160" height="120" as="alternateBounds" />
          </mxGeometry>
        </mxCell>
        <mxCell id="25" value="+Attribute1&#xa;+Attribute2&#xa;+Attribute3" style="align=left;strokeColor=none;fillColor=none;spacingLeft=4;fontSize=12;verticalAlign=top;resizable=0;rotatable=0;part=1;" parent="24" vertex="1">
          <mxGeometry y="30" width="160" height="90" as="geometry" />
        </mxCell>
        <mxCell id="26" value="" style="edgeStyle=orthogonalEdgeStyle;fontSize=12;html=1;endArrow=ERmany;strokeWidth=1;" parent="1" source="24" target="20" edge="1">
          <mxGeometry width="100" height="100" relative="1" as="geometry">
            <mxPoint x="440" y="120" as="sourcePoint" />
            <mxPoint x="440" y="170" as="targetPoint" />
            <Array as="points" />
          </mxGeometry>
        </mxCell>
        <mxCell id="27" value="RiPerspLink" style="swimlane;childLayout=stackLayout;horizontal=1;startSize=30;horizontalStack=0;rounded=1;fontSize=14;fontStyle=0;strokeWidth=2;resizeParent=0;resizeLast=1;shadow=0;dashed=0;align=center;arcSize=8;" parent="1" vertex="1" collapsed="1">
          <mxGeometry x="360" width="160" height="30" as="geometry">
            <mxRectangle x="360" width="160" height="120" as="alternateBounds" />
          </mxGeometry>
        </mxCell>
        <mxCell id="28" value="+Attribute1&#xa;+Attribute2&#xa;+Attribute3" style="align=left;strokeColor=none;fillColor=none;spacingLeft=4;fontSize=12;verticalAlign=top;resizable=0;rotatable=0;part=1;" parent="27" vertex="1">
          <mxGeometry y="30" width="160" height="90" as="geometry" />
        </mxCell>
        <mxCell id="29" value="" style="edgeStyle=orthogonalEdgeStyle;fontSize=12;html=1;endArrow=ERmany;strokeWidth=1;" parent="1" source="17" target="27" edge="1">
          <mxGeometry width="100" height="100" relative="1" as="geometry">
            <mxPoint x="560" as="sourcePoint" />
            <mxPoint x="560" y="50" as="targetPoint" />
            <Array as="points" />
          </mxGeometry>
        </mxCell>
        <mxCell id="30" value="01 Organization" style="text;html=1;strokeColor=#d79b00;fillColor=#ffe6cc;align=center;verticalAlign=middle;whiteSpace=wrap;rounded=0;" parent="1" vertex="1">
          <mxGeometry x="1000" y="-80" width="160" height="30" as="geometry" />
        </mxCell>
        <mxCell id="31" value="001 Company" style="text;html=1;strokeColor=#d79b00;fillColor=#ffe6cc;align=center;verticalAlign=middle;whiteSpace=wrap;rounded=0;" parent="1" vertex="1">
          <mxGeometry x="1000" y="80" width="160" height="30" as="geometry" />
        </mxCell>
        <mxCell id="32" value="002 Business Unit" style="text;html=1;strokeColor=#d79b00;fillColor=#ffe6cc;align=center;verticalAlign=middle;whiteSpace=wrap;rounded=0;" parent="1" vertex="1">
          <mxGeometry x="1200" y="80" width="160" height="30" as="geometry" />
        </mxCell>
        <mxCell id="33" value="01-001-01&lt;br&gt;01-002-01" style="text;html=1;strokeColor=#d79b00;fillColor=#ffe6cc;align=center;verticalAlign=middle;whiteSpace=wrap;rounded=0;" parent="1" vertex="1">
          <mxGeometry x="1000" width="160" height="30" as="geometry" />
        </mxCell>
        <mxCell id="34" value="RiPerspLinkType" style="swimlane;childLayout=stackLayout;horizontal=1;startSize=30;horizontalStack=0;rounded=1;fontSize=14;fontStyle=0;strokeWidth=2;resizeParent=0;resizeLast=1;shadow=0;dashed=0;align=center;arcSize=8;" parent="1" vertex="1" collapsed="1">
          <mxGeometry x="560" width="160" height="30" as="geometry">
            <mxRectangle x="360" width="160" height="120" as="alternateBounds" />
          </mxGeometry>
        </mxCell>
        <mxCell id="35" value="+Attribute1&#xa;+Attribute2&#xa;+Attribute3" style="align=left;strokeColor=none;fillColor=none;spacingLeft=4;fontSize=12;verticalAlign=top;resizable=0;rotatable=0;part=1;" parent="34" vertex="1">
          <mxGeometry y="30" width="160" height="90" as="geometry" />
        </mxCell>
        <mxCell id="36" value="" style="edgeStyle=orthogonalEdgeStyle;fontSize=12;html=1;endArrow=ERmany;strokeWidth=1;" parent="1" source="34" target="27" edge="1">
          <mxGeometry width="100" height="100" relative="1" as="geometry">
            <mxPoint x="550" y="50" as="sourcePoint" />
            <mxPoint x="510" y="50" as="targetPoint" />
            <Array as="points" />
          </mxGeometry>
        </mxCell>
        <mxCell id="37" value="01 Reflects" style="text;html=1;strokeColor=#d79b00;fillColor=#ffe6cc;align=center;verticalAlign=middle;whiteSpace=wrap;rounded=0;" parent="1" vertex="1">
          <mxGeometry x="1200" width="160" height="30" as="geometry" />
        </mxCell>
        <mxCell id="38" value="" style="endArrow=none;html=1;strokeWidth=1;fillColor=#fff2cc;strokeColor=#d6b656;edgeStyle=orthogonalEdgeStyle;" parent="1" source="37" target="33" edge="1">
          <mxGeometry width="50" height="50" relative="1" as="geometry">
            <mxPoint x="960" y="230" as="sourcePoint" />
            <mxPoint x="1010" y="180" as="targetPoint" />
          </mxGeometry>
        </mxCell>
        <mxCell id="39" value="" style="endArrow=none;html=1;strokeWidth=1;fillColor=#fff2cc;strokeColor=#d6b656;edgeStyle=orthogonalEdgeStyle;" parent="1" source="30" target="33" edge="1">
          <mxGeometry width="50" height="50" relative="1" as="geometry">
            <mxPoint x="1070" y="-20" as="sourcePoint" />
            <mxPoint x="1030" y="-20" as="targetPoint" />
          </mxGeometry>
        </mxCell>
        <mxCell id="40" value="" style="endArrow=none;html=1;strokeWidth=1;fillColor=#fff2cc;strokeColor=#d6b656;edgeStyle=orthogonalEdgeStyle;" parent="1" source="32" target="33" edge="1">
          <mxGeometry width="50" height="50" relative="1" as="geometry">
            <mxPoint x="1210" y="25" as="sourcePoint" />
            <mxPoint x="1170" y="25" as="targetPoint" />
            <Array as="points">
              <mxPoint x="1280" y="60" />
              <mxPoint x="1080" y="60" />
            </Array>
          </mxGeometry>
        </mxCell>
        <mxCell id="41" value="" style="endArrow=none;html=1;strokeWidth=1;fillColor=#fff2cc;strokeColor=#d6b656;edgeStyle=orthogonalEdgeStyle;" parent="1" source="31" target="33" edge="1">
          <mxGeometry width="50" height="50" relative="1" as="geometry">
            <mxPoint x="1290" y="90" as="sourcePoint" />
            <mxPoint x="1090" y="40" as="targetPoint" />
          </mxGeometry>
        </mxCell>
        <mxCell id="42" value="001-002-01" style="text;html=1;strokeColor=#d79b00;fillColor=#ffe6cc;align=center;verticalAlign=middle;whiteSpace=wrap;rounded=0;" parent="1" vertex="1">
          <mxGeometry x="1000" y="160" width="160" height="30" as="geometry" />
        </mxCell>
        <mxCell id="43" value="01 Contains" style="text;html=1;strokeColor=#d79b00;fillColor=#ffe6cc;align=center;verticalAlign=middle;whiteSpace=wrap;rounded=0;" parent="1" vertex="1">
          <mxGeometry x="1200" y="160" width="160" height="30" as="geometry" />
        </mxCell>
        <mxCell id="44" value="" style="endArrow=none;html=1;strokeWidth=1;fillColor=#fff2cc;strokeColor=#d6b656;edgeStyle=orthogonalEdgeStyle;" parent="1" source="42" target="31" edge="1">
          <mxGeometry width="50" height="50" relative="1" as="geometry">
            <mxPoint x="940" y="130" as="sourcePoint" />
            <mxPoint x="940" y="80" as="targetPoint" />
            <Array as="points" />
          </mxGeometry>
        </mxCell>
        <mxCell id="45" value="" style="endArrow=none;html=1;strokeWidth=1;fillColor=#fff2cc;strokeColor=#d6b656;edgeStyle=orthogonalEdgeStyle;" parent="1" source="42" target="32" edge="1">
          <mxGeometry width="50" height="50" relative="1" as="geometry">
            <mxPoint x="1140" y="170" as="sourcePoint" />
            <mxPoint x="1090" y="120" as="targetPoint" />
            <Array as="points">
              <mxPoint x="1080" y="140" />
              <mxPoint x="1280" y="140" />
            </Array>
          </mxGeometry>
        </mxCell>
        <mxCell id="46" value="" style="endArrow=none;html=1;strokeWidth=1;fillColor=#fff2cc;strokeColor=#d6b656;edgeStyle=orthogonalEdgeStyle;" parent="1" source="43" target="42" edge="1">
          <mxGeometry width="50" height="50" relative="1" as="geometry">
            <mxPoint x="1190" y="240" as="sourcePoint" />
            <mxPoint x="1150" y="240" as="targetPoint" />
          </mxGeometry>
        </mxCell>
        <mxCell id="47" value="02 Application" style="text;html=1;strokeColor=#6c8ebf;fillColor=#dae8fc;align=center;verticalAlign=middle;whiteSpace=wrap;rounded=0;" parent="1" vertex="1">
          <mxGeometry x="1600" y="-80" width="160" height="30" as="geometry" />
        </mxCell>
        <mxCell id="48" value="002 Business Unit" style="text;html=1;strokeColor=#6c8ebf;fillColor=#dae8fc;align=center;verticalAlign=middle;whiteSpace=wrap;rounded=0;" parent="1" vertex="1">
          <mxGeometry x="1600" y="80" width="160" height="30" as="geometry" />
        </mxCell>
        <mxCell id="49" value="003 System" style="text;html=1;strokeColor=#6c8ebf;fillColor=#dae8fc;align=center;verticalAlign=middle;whiteSpace=wrap;rounded=0;" parent="1" vertex="1">
          <mxGeometry x="1800" y="80" width="160" height="30" as="geometry" />
        </mxCell>
        <mxCell id="50" value="02-002-01&lt;br&gt;02-003-01&lt;br&gt;02-004-01" style="text;html=1;strokeColor=#6c8ebf;fillColor=#dae8fc;align=center;verticalAlign=middle;whiteSpace=wrap;rounded=0;" parent="1" vertex="1">
          <mxGeometry x="1600" y="-10" width="160" height="50" as="geometry" />
        </mxCell>
        <mxCell id="51" value="01 Reflects" style="text;html=1;strokeColor=#6c8ebf;fillColor=#dae8fc;align=center;verticalAlign=middle;whiteSpace=wrap;rounded=0;" parent="1" vertex="1">
          <mxGeometry x="1800" width="160" height="30" as="geometry" />
        </mxCell>
        <mxCell id="52" value="" style="endArrow=none;html=1;strokeWidth=1;fillColor=#fff2cc;strokeColor=#d6b656;edgeStyle=orthogonalEdgeStyle;" parent="1" source="51" target="50" edge="1">
          <mxGeometry width="50" height="50" relative="1" as="geometry">
            <mxPoint x="1560" y="230" as="sourcePoint" />
            <mxPoint x="1610" y="180" as="targetPoint" />
          </mxGeometry>
        </mxCell>
        <mxCell id="53" value="" style="endArrow=none;html=1;strokeWidth=1;fillColor=#dae8fc;strokeColor=#6c8ebf;edgeStyle=orthogonalEdgeStyle;" parent="1" source="47" target="50" edge="1">
          <mxGeometry width="50" height="50" relative="1" as="geometry">
            <mxPoint x="1670" y="-20" as="sourcePoint" />
            <mxPoint x="1630" y="-20" as="targetPoint" />
          </mxGeometry>
        </mxCell>
        <mxCell id="54" value="" style="endArrow=none;html=1;strokeWidth=1;fillColor=#dae8fc;strokeColor=#6c8ebf;edgeStyle=orthogonalEdgeStyle;" parent="1" source="49" target="50" edge="1">
          <mxGeometry width="50" height="50" relative="1" as="geometry">
            <mxPoint x="1810" y="25" as="sourcePoint" />
            <mxPoint x="1770" y="25" as="targetPoint" />
            <Array as="points">
              <mxPoint x="1880" y="60" />
              <mxPoint x="1680" y="60" />
            </Array>
          </mxGeometry>
        </mxCell>
        <mxCell id="55" value="" style="endArrow=none;html=1;strokeWidth=1;fillColor=#dae8fc;strokeColor=#6c8ebf;edgeStyle=orthogonalEdgeStyle;" parent="1" source="48" target="50" edge="1">
          <mxGeometry width="50" height="50" relative="1" as="geometry">
            <mxPoint x="1890" y="90" as="sourcePoint" />
            <mxPoint x="1690" y="40" as="targetPoint" />
          </mxGeometry>
        </mxCell>
        <mxCell id="56" value="001-003-01&lt;div&gt;&lt;div&gt;002-003-01&lt;/div&gt;&lt;div&gt;&lt;div&gt;003-004-01&lt;br&gt;&lt;/div&gt;&lt;/div&gt;&lt;/div&gt;" style="text;html=1;strokeColor=#6c8ebf;fillColor=#dae8fc;align=center;verticalAlign=middle;whiteSpace=wrap;rounded=0;" parent="1" vertex="1">
          <mxGeometry x="1600" y="150" width="160" height="50" as="geometry" />
        </mxCell>
        <mxCell id="57" value="01 Contains" style="text;html=1;strokeColor=#6c8ebf;fillColor=#dae8fc;align=center;verticalAlign=middle;whiteSpace=wrap;rounded=0;" parent="1" vertex="1">
          <mxGeometry x="1800" y="160" width="160" height="30" as="geometry" />
        </mxCell>
        <mxCell id="58" value="" style="endArrow=none;html=1;strokeWidth=1;fillColor=#dae8fc;strokeColor=#6c8ebf;edgeStyle=orthogonalEdgeStyle;" parent="1" source="56" target="48" edge="1">
          <mxGeometry width="50" height="50" relative="1" as="geometry">
            <mxPoint x="1540" y="130" as="sourcePoint" />
            <mxPoint x="1540" y="80" as="targetPoint" />
            <Array as="points" />
          </mxGeometry>
        </mxCell>
        <mxCell id="59" value="" style="endArrow=none;html=1;strokeWidth=1;fillColor=#dae8fc;strokeColor=#6c8ebf;edgeStyle=orthogonalEdgeStyle;" parent="1" source="56" target="49" edge="1">
          <mxGeometry width="50" height="50" relative="1" as="geometry">
            <mxPoint x="1740" y="170" as="sourcePoint" />
            <mxPoint x="1690" y="120" as="targetPoint" />
            <Array as="points">
              <mxPoint x="1680" y="140" />
              <mxPoint x="1880" y="140" />
            </Array>
          </mxGeometry>
        </mxCell>
        <mxCell id="60" value="" style="endArrow=none;html=1;strokeWidth=1;fillColor=#dae8fc;strokeColor=#6c8ebf;edgeStyle=orthogonalEdgeStyle;" parent="1" source="57" target="56" edge="1">
          <mxGeometry width="50" height="50" relative="1" as="geometry">
            <mxPoint x="1790" y="240" as="sourcePoint" />
            <mxPoint x="1750" y="240" as="targetPoint" />
          </mxGeometry>
        </mxCell>
        <mxCell id="61" value="" style="endArrow=none;html=1;strokeWidth=1;fillColor=#dae8fc;strokeColor=#6c8ebf;edgeStyle=orthogonalEdgeStyle;" parent="1" edge="1">
          <mxGeometry width="50" height="50" relative="1" as="geometry">
            <mxPoint x="1800" y="14.8" as="sourcePoint" />
            <mxPoint x="1760" y="14.8" as="targetPoint" />
          </mxGeometry>
        </mxCell>
        <mxCell id="62" value="004 Subsystem" style="text;html=1;strokeColor=#6c8ebf;fillColor=#dae8fc;align=center;verticalAlign=middle;whiteSpace=wrap;rounded=0;" parent="1" vertex="1">
          <mxGeometry x="2000" y="80" width="160" height="30" as="geometry" />
        </mxCell>
        <mxCell id="63" value="" style="endArrow=none;html=1;strokeWidth=1;fillColor=#dae8fc;strokeColor=#6c8ebf;edgeStyle=orthogonalEdgeStyle;" parent="1" source="62" target="50" edge="1">
          <mxGeometry width="50" height="50" relative="1" as="geometry">
            <mxPoint x="1890" y="90" as="sourcePoint" />
            <mxPoint x="1690" y="40" as="targetPoint" />
            <Array as="points">
              <mxPoint x="2080" y="60" />
              <mxPoint x="1680" y="60" />
            </Array>
          </mxGeometry>
        </mxCell>
        <mxCell id="64" value="" style="endArrow=none;html=1;strokeWidth=1;fillColor=#dae8fc;strokeColor=#6c8ebf;edgeStyle=orthogonalEdgeStyle;" parent="1" source="56" target="62" edge="1">
          <mxGeometry width="50" height="50" relative="1" as="geometry">
            <mxPoint x="1690" y="170" as="sourcePoint" />
            <mxPoint x="1890" y="120" as="targetPoint" />
            <Array as="points">
              <mxPoint x="1680" y="140" />
              <mxPoint x="2080" y="140" />
            </Array>
          </mxGeometry>
        </mxCell>
        <mxCell id="65" value="03 Info.Flows" style="text;html=1;strokeColor=#9673a6;fillColor=#e1d5e7;align=center;verticalAlign=middle;whiteSpace=wrap;rounded=0;" parent="1" vertex="1">
          <mxGeometry x="2200" y="-80" width="160" height="30" as="geometry" />
        </mxCell>
        <mxCell id="66" value="003 System" style="text;html=1;strokeColor=#9673a6;fillColor=#e1d5e7;align=center;verticalAlign=middle;whiteSpace=wrap;rounded=0;" parent="1" vertex="1">
          <mxGeometry x="2200" y="80" width="160" height="30" as="geometry" />
        </mxCell>
        <mxCell id="67" value="004 Subsystem" style="text;html=1;strokeColor=#9673a6;fillColor=#e1d5e7;align=center;verticalAlign=middle;whiteSpace=wrap;rounded=0;" parent="1" vertex="1">
          <mxGeometry x="2400" y="80" width="160" height="30" as="geometry" />
        </mxCell>
        <mxCell id="68" value="03-003-01&lt;br&gt;03-004-01&lt;br&gt;03-005-01" style="text;html=1;strokeColor=#9673a6;fillColor=#e1d5e7;align=center;verticalAlign=middle;whiteSpace=wrap;rounded=0;" parent="1" vertex="1">
          <mxGeometry x="2200" y="-10" width="160" height="50" as="geometry" />
        </mxCell>
        <mxCell id="69" value="01 Reflects" style="text;html=1;strokeColor=#9673a6;fillColor=#e1d5e7;align=center;verticalAlign=middle;whiteSpace=wrap;rounded=0;" parent="1" vertex="1">
          <mxGeometry x="2400" width="160" height="30" as="geometry" />
        </mxCell>
        <mxCell id="70" value="" style="endArrow=none;html=1;strokeWidth=1;fillColor=#fff2cc;strokeColor=#d6b656;edgeStyle=orthogonalEdgeStyle;" parent="1" source="69" target="68" edge="1">
          <mxGeometry width="50" height="50" relative="1" as="geometry">
            <mxPoint x="2160" y="230" as="sourcePoint" />
            <mxPoint x="2210" y="180" as="targetPoint" />
          </mxGeometry>
        </mxCell>
        <mxCell id="71" value="" style="endArrow=none;html=1;strokeWidth=1;fillColor=#e1d5e7;strokeColor=#9673a6;edgeStyle=orthogonalEdgeStyle;" parent="1" source="65" target="68" edge="1">
          <mxGeometry width="50" height="50" relative="1" as="geometry">
            <mxPoint x="2270" y="-20" as="sourcePoint" />
            <mxPoint x="2230" y="-20" as="targetPoint" />
          </mxGeometry>
        </mxCell>
        <mxCell id="72" value="" style="endArrow=none;html=1;strokeWidth=1;fillColor=#e1d5e7;strokeColor=#9673a6;edgeStyle=orthogonalEdgeStyle;" parent="1" source="67" target="68" edge="1">
          <mxGeometry width="50" height="50" relative="1" as="geometry">
            <mxPoint x="2410" y="25" as="sourcePoint" />
            <mxPoint x="2370" y="25" as="targetPoint" />
            <Array as="points">
              <mxPoint x="2480" y="60" />
              <mxPoint x="2280" y="60" />
            </Array>
          </mxGeometry>
        </mxCell>
        <mxCell id="73" value="" style="endArrow=none;html=1;strokeWidth=1;fillColor=#e1d5e7;strokeColor=#9673a6;edgeStyle=orthogonalEdgeStyle;" parent="1" source="66" target="68" edge="1">
          <mxGeometry width="50" height="50" relative="1" as="geometry">
            <mxPoint x="2490" y="90" as="sourcePoint" />
            <mxPoint x="2290" y="40" as="targetPoint" />
          </mxGeometry>
        </mxCell>
        <mxCell id="74" value="003-005-02&lt;br&gt;003-005-03&lt;br&gt;004-005-02&lt;br&gt;004-005-03" style="text;html=1;strokeColor=#9673a6;fillColor=#e1d5e7;align=center;verticalAlign=middle;whiteSpace=wrap;rounded=0;" parent="1" vertex="1">
          <mxGeometry x="2200" y="160" width="160" height="70" as="geometry" />
        </mxCell>
        <mxCell id="75" value="02 Side A&lt;br&gt;03 Side B" style="text;html=1;strokeColor=#9673a6;fillColor=#e1d5e7;align=center;verticalAlign=middle;whiteSpace=wrap;rounded=0;" parent="1" vertex="1">
          <mxGeometry x="2400" y="180" width="160" height="30" as="geometry" />
        </mxCell>
        <mxCell id="76" value="" style="endArrow=none;html=1;strokeWidth=1;fillColor=#e1d5e7;strokeColor=#9673a6;edgeStyle=orthogonalEdgeStyle;" parent="1" source="74" target="66" edge="1">
          <mxGeometry width="50" height="50" relative="1" as="geometry">
            <mxPoint x="2140" y="130" as="sourcePoint" />
            <mxPoint x="2140" y="80" as="targetPoint" />
            <Array as="points" />
          </mxGeometry>
        </mxCell>
        <mxCell id="77" value="" style="endArrow=none;html=1;strokeWidth=1;fillColor=#e1d5e7;strokeColor=#9673a6;edgeStyle=orthogonalEdgeStyle;" parent="1" source="74" target="67" edge="1">
          <mxGeometry width="50" height="50" relative="1" as="geometry">
            <mxPoint x="2340" y="170" as="sourcePoint" />
            <mxPoint x="2290" y="120" as="targetPoint" />
            <Array as="points">
              <mxPoint x="2280" y="140" />
              <mxPoint x="2480" y="140" />
            </Array>
          </mxGeometry>
        </mxCell>
        <mxCell id="78" value="" style="endArrow=none;html=1;strokeWidth=1;fillColor=#e1d5e7;strokeColor=#9673a6;edgeStyle=orthogonalEdgeStyle;" parent="1" source="75" target="74" edge="1">
          <mxGeometry width="50" height="50" relative="1" as="geometry">
            <mxPoint x="2390" y="260" as="sourcePoint" />
            <mxPoint x="2350" y="260" as="targetPoint" />
          </mxGeometry>
        </mxCell>
        <mxCell id="79" value="" style="endArrow=none;html=1;strokeWidth=1;fillColor=#e1d5e7;strokeColor=#9673a6;edgeStyle=orthogonalEdgeStyle;" parent="1" edge="1">
          <mxGeometry width="50" height="50" relative="1" as="geometry">
            <mxPoint x="2400" y="14.799999999999955" as="sourcePoint" />
            <mxPoint x="2360" y="14.799999999999955" as="targetPoint" />
          </mxGeometry>
        </mxCell>
        <mxCell id="83" value="005 Info.Flow" style="text;html=1;strokeColor=#9673a6;fillColor=#e1d5e7;align=center;verticalAlign=middle;whiteSpace=wrap;rounded=0;" parent="1" vertex="1">
          <mxGeometry x="2600" y="80" width="160" height="30" as="geometry" />
        </mxCell>
        <mxCell id="84" value="" style="endArrow=none;html=1;strokeWidth=1;fillColor=#e1d5e7;strokeColor=#9673a6;edgeStyle=orthogonalEdgeStyle;" parent="1" source="83" target="68" edge="1">
          <mxGeometry width="50" height="50" relative="1" as="geometry">
            <mxPoint x="2490" y="90" as="sourcePoint" />
            <mxPoint x="2290" y="40" as="targetPoint" />
            <Array as="points">
              <mxPoint x="2680" y="60" />
              <mxPoint x="2280" y="60" />
            </Array>
          </mxGeometry>
        </mxCell>
        <mxCell id="85" value="" style="endArrow=none;html=1;strokeWidth=1;fillColor=#e1d5e7;strokeColor=#9673a6;edgeStyle=orthogonalEdgeStyle;" parent="1" source="74" target="83" edge="1">
          <mxGeometry width="50" height="50" relative="1" as="geometry">
            <mxPoint x="2290" y="170" as="sourcePoint" />
            <mxPoint x="2490" y="120" as="targetPoint" />
            <Array as="points">
              <mxPoint x="2280" y="140" />
              <mxPoint x="2680" y="140" />
            </Array>
          </mxGeometry>
        </mxCell>
        <mxCell id="fHQ6Z88B09qpkTAD6cIE-164" value="000 Core Attrs" style="text;html=1;strokeColor=#d79b00;fillColor=#ffe6cc;align=center;verticalAlign=middle;whiteSpace=wrap;rounded=0;" vertex="1" parent="1">
          <mxGeometry x="800" y="280" width="160" height="30" as="geometry" />
        </mxCell>
        <mxCell id="fHQ6Z88B09qpkTAD6cIE-165" value="001 Company" style="text;html=1;strokeColor=#6c8ebf;fillColor=#dae8fc;align=center;verticalAlign=middle;whiteSpace=wrap;rounded=0;" vertex="1" parent="1">
          <mxGeometry x="1400" y="80" width="160" height="30" as="geometry" />
        </mxCell>
        <mxCell id="fHQ6Z88B09qpkTAD6cIE-166" value="" style="endArrow=none;html=1;strokeWidth=1;fillColor=#dae8fc;strokeColor=#6c8ebf;edgeStyle=orthogonalEdgeStyle;" edge="1" parent="1" source="56" target="fHQ6Z88B09qpkTAD6cIE-165">
          <mxGeometry width="50" height="50" relative="1" as="geometry">
            <mxPoint x="1690" y="170" as="sourcePoint" />
            <mxPoint x="1690" y="120" as="targetPoint" />
            <Array as="points">
              <mxPoint x="1680" y="140" />
              <mxPoint x="1480" y="140" />
            </Array>
          </mxGeometry>
        </mxCell>
        <mxCell id="hHNxzonqEHo2mrZ5pxUE-164" value="RiType" style="swimlane;childLayout=stackLayout;horizontal=1;startSize=30;horizontalStack=0;rounded=1;fontSize=14;fontStyle=0;strokeWidth=2;resizeParent=0;resizeLast=1;shadow=0;dashed=0;align=center;arcSize=8;" vertex="1" collapsed="1" parent="1">
          <mxGeometry x="360" y="280" width="160" height="30" as="geometry">
            <mxRectangle x="360" y="240" width="160" height="120" as="alternateBounds" />
          </mxGeometry>
        </mxCell>
        <mxCell id="hHNxzonqEHo2mrZ5pxUE-165" value="+Attribute1&#xa;+Attribute2&#xa;+Attribute3" style="align=left;strokeColor=none;fillColor=none;spacingLeft=4;fontSize=12;verticalAlign=top;resizable=0;rotatable=0;part=1;" vertex="1" parent="hHNxzonqEHo2mrZ5pxUE-164">
          <mxGeometry y="30" width="160" height="90" as="geometry" />
        </mxCell>
        <mxCell id="hHNxzonqEHo2mrZ5pxUE-166" value="RiAttr" style="swimlane;childLayout=stackLayout;horizontal=1;startSize=30;horizontalStack=0;rounded=1;fontSize=14;fontStyle=0;strokeWidth=2;resizeParent=0;resizeLast=1;shadow=0;dashed=0;align=center;arcSize=8;" vertex="1" collapsed="1" parent="1">
          <mxGeometry x="360" y="360" width="160" height="30" as="geometry">
            <mxRectangle x="360" y="160" width="160" height="120" as="alternateBounds" />
          </mxGeometry>
        </mxCell>
        <mxCell id="hHNxzonqEHo2mrZ5pxUE-167" value="+Attribute1&#xa;+Attribute2&#xa;+Attribute3" style="align=left;strokeColor=none;fillColor=none;spacingLeft=4;fontSize=12;verticalAlign=top;resizable=0;rotatable=0;part=1;" vertex="1" parent="hHNxzonqEHo2mrZ5pxUE-166">
          <mxGeometry y="30" width="160" height="90" as="geometry" />
        </mxCell>
        <mxCell id="hHNxzonqEHo2mrZ5pxUE-168" value="" style="edgeStyle=orthogonalEdgeStyle;fontSize=12;html=1;endArrow=ERmany;strokeWidth=1;" edge="1" source="hHNxzonqEHo2mrZ5pxUE-164" target="hHNxzonqEHo2mrZ5pxUE-166" parent="1">
          <mxGeometry width="100" height="100" relative="1" as="geometry">
            <mxPoint x="550" y="400" as="sourcePoint" />
            <mxPoint x="520" y="480" as="targetPoint" />
            <Array as="points">
              <mxPoint x="400" y="340" />
              <mxPoint x="400" y="340" />
            </Array>
          </mxGeometry>
        </mxCell>
        <mxCell id="hHNxzonqEHo2mrZ5pxUE-169" value="" style="edgeStyle=orthogonalEdgeStyle;fontSize=12;html=1;endArrow=ERmany;strokeWidth=1;" edge="1" source="hHNxzonqEHo2mrZ5pxUE-164" target="hHNxzonqEHo2mrZ5pxUE-166" parent="1">
          <mxGeometry width="100" height="100" relative="1" as="geometry">
            <mxPoint x="390" y="320" as="sourcePoint" />
            <mxPoint x="390" y="370" as="targetPoint" />
            <Array as="points">
              <mxPoint x="480" y="330" />
              <mxPoint x="480" y="330" />
            </Array>
          </mxGeometry>
        </mxCell>
        <mxCell id="hHNxzonqEHo2mrZ5pxUE-170" value="RiAttrType" style="swimlane;childLayout=stackLayout;horizontal=1;startSize=30;horizontalStack=0;rounded=1;fontSize=14;fontStyle=0;strokeWidth=2;resizeParent=0;resizeLast=1;shadow=0;dashed=0;align=center;arcSize=8;" vertex="1" collapsed="1" parent="1">
          <mxGeometry x="560" y="360" width="160" height="30" as="geometry">
            <mxRectangle x="520" y="160" width="160" height="120" as="alternateBounds" />
          </mxGeometry>
        </mxCell>
        <mxCell id="hHNxzonqEHo2mrZ5pxUE-171" value="+Attribute1&#xa;+Attribute2&#xa;+Attribute3" style="align=left;strokeColor=none;fillColor=none;spacingLeft=4;fontSize=12;verticalAlign=top;resizable=0;rotatable=0;part=1;" vertex="1" parent="hHNxzonqEHo2mrZ5pxUE-170">
          <mxGeometry y="30" width="160" height="90" as="geometry" />
        </mxCell>
        <mxCell id="hHNxzonqEHo2mrZ5pxUE-172" value="" style="edgeStyle=orthogonalEdgeStyle;fontSize=12;html=1;endArrow=ERmany;strokeWidth=1;" edge="1" source="hHNxzonqEHo2mrZ5pxUE-170" target="hHNxzonqEHo2mrZ5pxUE-166" parent="1">
          <mxGeometry width="100" height="100" relative="1" as="geometry">
            <mxPoint x="440" y="320" as="sourcePoint" />
            <mxPoint x="440" y="370" as="targetPoint" />
            <Array as="points" />
          </mxGeometry>
        </mxCell>
        <mxCell id="hHNxzonqEHo2mrZ5pxUE-173" value="01 Contains" style="text;html=1;strokeColor=#d79b00;fillColor=#ffe6cc;align=center;verticalAlign=middle;whiteSpace=wrap;rounded=0;" vertex="1" parent="1">
          <mxGeometry x="1000" y="360" width="160" height="30" as="geometry" />
        </mxCell>
        <mxCell id="hHNxzonqEHo2mrZ5pxUE-174" value="01 Contains" style="text;html=1;strokeColor=#d79b00;fillColor=#ffe6cc;align=center;verticalAlign=middle;whiteSpace=wrap;rounded=0;" vertex="1" parent="1">
          <mxGeometry x="800" y="360" width="160" height="30" as="geometry" />
        </mxCell>
        <mxCell id="hHNxzonqEHo2mrZ5pxUE-175" value="RiRoot" style="swimlane;childLayout=stackLayout;horizontal=1;startSize=30;horizontalStack=0;rounded=1;fontSize=14;fontStyle=0;strokeWidth=2;resizeParent=0;resizeLast=1;shadow=0;dashed=0;align=center;arcSize=8;" vertex="1" collapsed="1" parent="1">
          <mxGeometry x="-40" y="-80" width="160" height="30" as="geometry">
            <mxRectangle x="360" width="160" height="120" as="alternateBounds" />
          </mxGeometry>
        </mxCell>
        <mxCell id="hHNxzonqEHo2mrZ5pxUE-176" value="+Attribute1&#xa;+Attribute2&#xa;+Attribute3" style="align=left;strokeColor=none;fillColor=none;spacingLeft=4;fontSize=12;verticalAlign=top;resizable=0;rotatable=0;part=1;" vertex="1" parent="hHNxzonqEHo2mrZ5pxUE-175">
          <mxGeometry y="30" width="160" height="90" as="geometry" />
        </mxCell>
        <mxCell id="hHNxzonqEHo2mrZ5pxUE-177" value="RiRoot" style="swimlane;childLayout=stackLayout;horizontal=1;startSize=30;horizontalStack=0;rounded=1;fontSize=14;fontStyle=0;strokeWidth=2;resizeParent=0;resizeLast=1;shadow=0;dashed=0;align=center;arcSize=8;" vertex="1" collapsed="1" parent="1">
          <mxGeometry x="160" y="-80" width="160" height="30" as="geometry">
            <mxRectangle x="360" width="160" height="120" as="alternateBounds" />
          </mxGeometry>
        </mxCell>
        <mxCell id="hHNxzonqEHo2mrZ5pxUE-178" value="+Attribute1&#xa;+Attribute2&#xa;+Attribute3" style="align=left;strokeColor=none;fillColor=none;spacingLeft=4;fontSize=12;verticalAlign=top;resizable=0;rotatable=0;part=1;" vertex="1" parent="hHNxzonqEHo2mrZ5pxUE-177">
          <mxGeometry y="30" width="160" height="90" as="geometry" />
        </mxCell>
      </root>
    </mxGraphModel>
  </diagram>
</mxfile>
